<?xml version="1.0" encoding="UTF-8" standalone="no" ?>
<!DOCTYPE svg PUBLIC "-//W3C//DTD SVG 1.1//EN" "http://www.w3.org/Graphics/SVG/1.1/DTD/svg11.dtd">
<svg xmlns="http://www.w3.org/2000/svg" xmlns:xlink="http://www.w3.org/1999/xlink" version="1.1" width="1280" height="1024" viewBox="0 0 1280 1024" xml:space="preserve">
<desc>Created with Fabric.js 5.3.0</desc>
<defs>
</defs>
<g transform="matrix(1 0 0 1 640 512)" id="background-logo"  >
<rect style="stroke: none; stroke-width: 0; stroke-dasharray: none; stroke-linecap: butt; stroke-dashoffset: 0; stroke-linejoin: miter; stroke-miterlimit: 4; fill: rgb(255,255,255); fill-opacity: 0; fill-rule: nonzero; opacity: 1;"  paint-order="stroke"  x="-640" y="-512" rx="0" ry="0" width="1280" height="1024" />
</g>
<g transform="matrix(2.151285643071192 0 0 2.151285643071192 329.898595428979 498.72564307599254)" id="logo-logo"  >
<g style=""  paint-order="stroke"   >
		<g transform="matrix(0.41368256901778605 0 0 0.41368256901778605 -0.11334037288776244 -10.77579557374051)"  >
<path style="stroke: none; stroke-width: 1; stroke-dasharray: none; stroke-linecap: butt; stroke-dashoffset: 0; stroke-linejoin: miter; stroke-miterlimit: 4; fill: rgb(65,148,0); fill-rule: nonzero; opacity: 1;"  paint-order="stroke"  transform=" translate(-359.7503134560092, -333.94999999999993)" d="M 422.8 501.5 L 422.8 502 C 422.2 506.7 421.6 511.2 420.90000000000003 515.8 C 420.3 520 419.6 524.1999999999999 418.70000000000005 528.5 C 416.50000000000006 539.8 413.50000000000006 550.8 408.1 560.8 L 408 560.9 C 408.1 561 408.1 561 408 561 C 407.2 562.5 406.4 564 405.4 565.4 C 404.59999999999997 566.6 403.79999999999995 567.6999999999999 403 568.8 C 400.8 571.5999999999999 398.3 574.1999999999999 395.5 576.4 C 393.9 577.6999999999999 392.1 578.8 390.3 579.8 C 388.1 581.0999999999999 385.8 582.1999999999999 383.3 583.1999999999999 C 381.40000000000003 583.9 379.5 584.4999999999999 377.40000000000003 584.9999999999999 C 376.1 585.3999999999999 374.70000000000005 585.6999999999999 373.20000000000005 585.9999999999999 C 370.80000000000007 586.4999999999999 368.40000000000003 586.7999999999998 366.00000000000006 586.8999999999999 C 364.90000000000003 586.9999999999999 363.80000000000007 586.9999999999999 362.70000000000005 586.9999999999999 C 361.80000000000007 586.9999999999999 361.00000000000006 586.9999999999999 360.1 586.8999999999999 C 357.40000000000003 586.7999999999998 354.70000000000005 586.4999999999999 352.1 585.8999999999999 C 350.1 585.4999999999999 348 584.8999999999999 346.1 584.1999999999998 C 341.20000000000005 582.4999999999998 336.70000000000005 580.0999999999998 332.8 576.8999999999999 C 332.5 576.6999999999998 332.1 576.3999999999999 331.8 576.0999999999999 C 330.3 574.8999999999999 329.1 573.6999999999999 327.7 572.3999999999999 C 327.7 572.3999999999999 327.7 572.3999999999999 327.59999999999997 572.2999999999998 C 324.79999999999995 569.4999999999999 322.2 566.2999999999998 319.79999999999995 562.7999999999998 C 318.09999999999997 560.1999999999998 316.49999999999994 557.5999999999998 314.99999999999994 554.6999999999998 C 314.99999999999994 554.6999999999998 314.8999999999999 554.5999999999998 314.8999999999999 554.5999999999998 C 310.99999999999994 546.9999999999998 307.99999999999994 537.9999999999998 305.69999999999993 527.6999999999998 L 304.99999999999994 524.1999999999998 C 300.99999999999994 497.5999999999998 298.19999999999993 470.3999999999998 295.79999999999995 446.3999999999998 C 294.79999999999995 436.1999999999998 293.69999999999993 426.0999999999998 292.59999999999997 415.99999999999983 L 292.4 414.29999999999984 C 291.59999999999997 407.59999999999985 290.2 396.39999999999986 296.4 392.59999999999985 C 297.09999999999997 392.1999999999999 297.9 391.99999999999983 298.79999999999995 391.99999999999983 C 299.49999999999994 391.99999999999983 300.29999999999995 392.09999999999985 301.29999999999995 392.1999999999998 C 302.09999999999997 392.3999999999998 303.09999999999997 392.49999999999983 304.09999999999997 392.49999999999983 C 305.4 392.49999999999983 306.59999999999997 392.1999999999998 307.59999999999997 391.49999999999983 C 307.99999999999994 391.29999999999984 308.4 390.99999999999983 308.79999999999995 390.59999999999985 C 311.79999999999995 387.59999999999985 311.79999999999995 381.09999999999985 311.79999999999995 376.79999999999984 L 311.79999999999995 375 C 312.59999999999997 350 310.29999999999995 323.8 308.4 300.6 L 308.29999999999995 299.8 C 306.99999999999994 284 306.29999999999995 268.6 311.29999999999995 254.3 C 313.29999999999995 248.70000000000002 316.49999999999994 244.10000000000002 319.29999999999995 240.10000000000002 C 320.9 237.8 322.59999999999997 235.50000000000003 323.99999999999994 233.00000000000003 C 326.3999999999999 228.80000000000004 328.3999999999999 224.10000000000002 328.8999999999999 218.30000000000004 L 328.8999999999999 218.20000000000005 C 329.69999999999993 210.20000000000005 330.0999999999999 201.90000000000003 330.49999999999994 193.90000000000003 C 330.99999999999994 185.60000000000002 331.3999999999999 177.40000000000003 332.09999999999997 169.20000000000005 C 333.79999999999995 149.10000000000005 335.9 125.60000000000005 338.4 101.90000000000005 C 338.9 97.40000000000005 339.7 93.50000000000004 341 90.40000000000005 C 341 90.40000000000005 341 90.40000000000005 341 90.30000000000005 C 342.3 87.00000000000006 343.9 84.50000000000006 345.9 83.00000000000006 C 346.9 82.20000000000006 348 81.60000000000005 349.2 81.30000000000005 C 349.7 81.10000000000005 350.2 81.00000000000006 350.8 81.00000000000006 C 351.1 80.90000000000006 351.6 80.90000000000006 351.90000000000003 80.90000000000006 C 353.00000000000006 80.90000000000006 354.00000000000006 81.10000000000007 355.00000000000006 81.40000000000006 C 356.30000000000007 81.80000000000007 357.6000000000001 82.40000000000006 358.6000000000001 83.30000000000007 C 360.2000000000001 84.50000000000007 361.6000000000001 86.00000000000007 362.50000000000006 87.50000000000007 C 362.90000000000003 88.10000000000007 363.30000000000007 88.80000000000007 363.6000000000001 89.50000000000007 L 363.7000000000001 89.60000000000007 C 365.6000000000001 93.40000000000006 366.4000000000001 97.60000000000007 367.2000000000001 101.50000000000007 C 370.6000000000001 118.50000000000007 373.3000000000001 136.10000000000008 375.6000000000001 151.30000000000007 C 376.9000000000001 159.60000000000008 378.2000000000001 167.90000000000006 379.6000000000001 176.50000000000006 C 379.80000000000007 177.80000000000007 380.00000000000006 179.20000000000005 380.2000000000001 180.60000000000005 C 381.5000000000001 188.90000000000006 383.1000000000001 195.00000000000006 384.9000000000001 198.90000000000006 C 386.2000000000001 201.80000000000007 387.6000000000001 203.50000000000006 389.0000000000001 204.00000000000006 C 389.10000000000014 204.10000000000005 389.2000000000001 204.10000000000005 389.3000000000001 204.10000000000005 C 389.60000000000014 204.20000000000005 390.0000000000001 204.30000000000004 390.3000000000001 204.30000000000004 C 391.10000000000014 204.30000000000004 392.0000000000001 204.00000000000003 392.8000000000001 203.40000000000003 C 393.2000000000001 203.10000000000002 393.5000000000001 202.80000000000004 393.8000000000001 202.40000000000003 C 394.8000000000001 200.80000000000004 394.90000000000015 198.50000000000003 395.0000000000001 196.40000000000003 C 395.10000000000014 193.60000000000002 395.2000000000001 191.80000000000004 396.2000000000001 190.80000000000004 L 397.7000000000001 191.70000000000005 L 396.6000000000001 190.40000000000003 C 396.9000000000001 190.10000000000002 397.4000000000001 189.90000000000003 397.80000000000007 189.90000000000003 C 397.9000000000001 189.90000000000003 397.9000000000001 189.90000000000003 397.9000000000001 189.90000000000003 C 398.4000000000001 190.00000000000003 398.80000000000007 190.20000000000005 399.1000000000001 190.50000000000003 C 400.2000000000001 191.80000000000004 402.9000000000001 197.10000000000002 404.00000000000006 216.60000000000002 C 404.50000000000006 224.70000000000002 404.6000000000001 232.90000000000003 404.80000000000007 240.8 L 404.9000000000001 245.20000000000002 C 405.0000000000001 247.9 405.0000000000001 250.70000000000002 405.1000000000001 253.4 C 405.6000000000001 268.2 406.4000000000001 283.2 407.4000000000001 298.6 L 408.2000000000001 312.20000000000005 C 408.3000000000001 314.40000000000003 409.4000000000001 316.30000000000007 411.2000000000001 317.6 C 412.1000000000001 318.20000000000005 413.1000000000001 318.6 414.1000000000001 318.8 C 414.50000000000006 318.8 414.9000000000001 318.90000000000003 415.30000000000007 318.90000000000003 C 416.00000000000006 318.90000000000003 416.70000000000005 318.8 417.4000000000001 318.6 C 418.0000000000001 318.40000000000003 418.7000000000001 318.3 419.4000000000001 318.3 C 419.6000000000001 318.3 419.7000000000001 318.3 419.9000000000001 318.40000000000003 C 420.9000000000001 318.50000000000006 421.9000000000001 318.8 422.7000000000001 319.40000000000003 C 424.3000000000001 320.6 425.3000000000001 322.3 425.4000000000001 324.3 C 428.3 381.9 429.8 442.3 422.8 501.5 z" stroke-linecap="round" />
</g>
		<g transform="matrix(0.41368256901778605 0 0 0.41368256901778605 2.244520599226405 -10.734427316838776)"  >
<path style="stroke: none; stroke-width: 1; stroke-dasharray: none; stroke-linecap: butt; stroke-dashoffset: 0; stroke-linejoin: miter; stroke-miterlimit: 4; fill: rgb(116,155,116); fill-rule: nonzero; opacity: 1;"  paint-order="stroke"  transform=" translate(-365.44999999999993, -334.04999999999995)" d="M 352.3 585.9 C 350.3 585.5 348.2 584.9 346.3 584.1999999999999 C 330 381.3999999999999 339.40000000000003 136.69999999999993 341.40000000000003 90.59999999999991 C 341.40000000000003 90.59999999999991 341.40000000000003 90.59999999999991 341.40000000000003 90.49999999999991 C 342.70000000000005 87.19999999999992 344.3 84.69999999999992 346.3 83.19999999999992 L 347.5 83.29999999999991 C 347.4 86 334 362.2 352.3 585.9 z M 331 218.5 L 329.3 218.4 C 328.8 224.20000000000002 326.8 228.9 324.40000000000003 233.1 C 320.20000000000005 313 321.1 492.1 327.90000000000003 572.5 C 328.00000000000006 572.6 328.00000000000006 572.6 328.00000000000006 572.6 C 329.30000000000007 573.9 330.6000000000001 575.1 332.1000000000001 576.3000000000001 C 332.4000000000001 576.6 332.7000000000001 576.8000000000001 333.1000000000001 577.1 L 334.30000000000007 577 C 326.4 494 325.7 289.5 331 218.5 z M 313.9 375 L 312.2 375 L 312.2 376.9 C 312.2 381.2 312.2 387.7 309.2 390.7 C 308.9 391 308.4 391.4 308 391.59999999999997 C 308.2 454.09999999999997 312.9 522.6999999999999 315.3 554.6999999999999 C 315.3 554.8 315.40000000000003 554.8 315.40000000000003 554.8 C 316.90000000000003 557.8 318.50000000000006 560.4 320.20000000000005 562.9 L 321.80000000000007 562.8 C 319.6 534.3 313 447.6 313.9 375 z M 364.1 89.7 L 364.1 89.7 C 363.8 88.9 363.3 88.2 362.90000000000003 87.60000000000001 C 362.00000000000006 86.10000000000001 360.6 84.60000000000001 359.00000000000006 83.4 L 357.70000000000005 83.5 C 358.00000000000006 86.9 383.00000000000006 427.3 377.40000000000003 584.9 C 379.40000000000003 584.4 381.40000000000003 583.8 383.3 583.1 C 388.3 436.8 367.5 138 364.1 89.7 z M 355.5 81.6 C 354.5 81.3 353.5 81.1 352.4 81.1 C 352.09999999999997 81.1 351.59999999999997 81.1 351.29999999999995 81.19999999999999 C 350.69999999999993 81.29999999999998 350.19999999999993 81.39999999999999 349.69999999999993 81.49999999999999 C 350.19999999999993 108.49999999999999 356.5999999999999 483.6 360.29999999999995 586.9 C 361.19999999999993 587 361.99999999999994 587 362.9 587 C 364 587 365.09999999999997 586.9 366.2 586.9 C 362.3 484.3 356 110.5 355.5 81.6 z M 385.4 199 C 383.59999999999997 195.1 382 188.9 380.7 180.7 C 380.5 179.39999999999998 380.2 178 380.09999999999997 176.6 L 378.29999999999995 176.7 C 378.49999999999994 179.79999999999998 397.49999999999994 487.4 389.49999999999994 579.5999999999999 L 390.29999999999995 579.6999999999999 C 392.19999999999993 578.6999999999999 393.9 577.4999999999999 395.49999999999994 576.3 C 401.6 494.9 389.5 271 385.4 199 z M 395.5 202.4 L 394.3 202.5 C 394 202.9 393.7 203.3 393.3 203.5 C 392.5 204.1 391.6 204.4 390.8 204.4 C 390.5 204.4 390.2 204.3 389.8 204.20000000000002 C 391.40000000000003 226.10000000000002 411.1 489.1 401.40000000000003 568.5 L 403.00000000000006 568.7 C 403.90000000000003 567.6 404.70000000000005 566.4000000000001 405.40000000000003 565.3000000000001 C 406.3 563.8000000000001 407.20000000000005 562.4000000000001 408.00000000000006 560.9000000000001 C 408.1000000000001 560.8000000000001 408.1000000000001 560.8000000000001 408.00000000000006 560.8000000000001 L 408.1000000000001 560.7 C 416 468.5 395.7 205.1 395.5 202.4 z M 420.5 318.6 C 420.3 318.5 420.2 318.5 420 318.5 C 419.3 318.5 418.6 318.6 418 318.8 C 417.3 319 416.6 319.1 415.9 319.1 C 415.5 319.1 415.09999999999997 319 414.7 319 C 414.9 334.1 417.09999999999997 474.5 417.09999999999997 528.4 L 418.79999999999995 528.4 C 419.69999999999993 524.1999999999999 420.4 519.9 420.99999999999994 515.6999999999999 C 421.59999999999997 511.0999999999999 422.29999999999995 506.49999999999994 422.8999999999999 501.8999999999999 L 422.8999999999999 501.3999999999999 C 422.3 437 420.7 329.4 420.5 318.6 z" stroke-linecap="round" />
</g>
		<g transform="matrix(0.41368256901778605 0 0 0.41368256901778605 -0.010049401920582568 38.34900949712156)"  >
<path style="stroke: none; stroke-width: 1; stroke-dasharray: none; stroke-linecap: butt; stroke-dashoffset: 0; stroke-linejoin: miter; stroke-miterlimit: 4; fill: rgb(189,192,0); fill-rule: nonzero; opacity: 1;"  paint-order="stroke"  transform=" translate(-360, -452.70000000000016)" d="M 368.1 462.4 C 368.40000000000003 461.79999999999995 368.70000000000005 461.09999999999997 368.8 460.4 C 368.90000000000003 459.9 369.2 459.4 369.7 459.2 C 370 459 370.3 459 370.59999999999997 459 C 370.79999999999995 459 370.99999999999994 459.1 371.2 459.1 C 371.59999999999997 459.3 372.09999999999997 459.40000000000003 372.5 459.6 C 373.2 459.8 374 460 374.8 460.20000000000005 C 374.3 459.90000000000003 373.8 459.6 373.3 459.30000000000007 C 371.8 458.4000000000001 370.6 457.30000000000007 369.5 456.20000000000005 C 369.2 455.90000000000003 369 455.40000000000003 369 455.00000000000006 L 369 450.20000000000005 C 369 449.70000000000005 369.2 449.30000000000007 369.5 449.00000000000006 C 371 447.50000000000006 372.7 446.20000000000005 374.8 445.00000000000006 C 373.5 445.30000000000007 372.3 445.70000000000005 371.2 446.1000000000001 C 371 446.2000000000001 370.8 446.2000000000001 370.59999999999997 446.2000000000001 C 370.29999999999995 446.2000000000001 369.99999999999994 446.1000000000001 369.7 446.0000000000001 C 369.2 445.8000000000001 368.9 445.3000000000001 368.8 444.8000000000001 C 368.7 444.10000000000014 368.5 443.5000000000001 368 442.60000000000014 C 367.7 441.90000000000015 367.8 441.10000000000014 368.4 440.60000000000014 C 369.59999999999997 439.5000000000001 370.79999999999995 438.40000000000015 372.2 437.40000000000015 C 373.8 436.20000000000016 375.5 435.10000000000014 377.09999999999997 434.00000000000017 C 379.9 432.40000000000015 382.7 431.1000000000002 385.49999999999994 430.3000000000002 C 387.49999999999994 429.8000000000002 389.29999999999995 429.50000000000017 390.8999999999999 429.50000000000017 C 391.49999999999994 429.50000000000017 392.19999999999993 429.6000000000002 392.8999999999999 429.6000000000002 C 395.2999999999999 429.9000000000002 397.49999999999994 430.7000000000002 399.3999999999999 432.00000000000017 C 399.2999999999999 431.6000000000002 399.2999999999999 431.20000000000016 399.5999999999999 430.8000000000002 C 399.8999999999999 430.20000000000016 400.4999999999999 429.9000000000002 401.0999999999999 429.9000000000002 L 401.2999999999999 429.9000000000002 C 402.0999999999999 430.0000000000002 402.8999999999999 430.2000000000002 403.8999999999999 430.8000000000002 C 405.7999999999999 432.00000000000017 407.19999999999993 433.9000000000002 408.49999999999994 437.00000000000017 C 408.99999999999994 438.3000000000002 409.29999999999995 440.20000000000016 409.49999999999994 442.20000000000016 C 409.69999999999993 444.40000000000015 409.8999999999999 447.10000000000014 409.99999999999994 450.90000000000015 C 409.99999999999994 452.3000000000001 409.99999999999994 453.70000000000016 409.8999999999999 455.10000000000014 C 409.8999999999999 456.3000000000001 409.8999999999999 457.40000000000015 409.7999999999999 458.5000000000001 C 409.6999999999999 460.10000000000014 409.5999999999999 461.5000000000001 409.4999999999999 462.8000000000001 C 409.39999999999986 463.5000000000001 409.2999999999999 464.10000000000014 409.2999999999999 464.7000000000001 C 409.0999999999999 466.4000000000001 408.7999999999999 467.6000000000001 408.4999999999999 468.4000000000001 C 407.1999999999999 471.4000000000001 405.7999999999999 473.4000000000001 403.6999999999999 474.7000000000001 C 402.7999999999999 475.1000000000001 401.9999999999999 475.4000000000001 401.2999999999999 475.5000000000001 L 401.0999999999999 475.5000000000001 C 400.4999999999999 475.5000000000001 399.8999999999999 475.2000000000001 399.5999999999999 474.60000000000014 C 399.3999999999999 474.20000000000016 399.2999999999999 473.70000000000016 399.3999999999999 473.3000000000001 C 398.0999999999999 474.10000000000014 396.7999999999999 474.60000000000014 395.69999999999993 475.0000000000001 C 393.8999999999999 475.60000000000014 391.99999999999994 475.9000000000001 390.0999999999999 475.9000000000001 C 381.9999999999999 475.9000000000001 374.8999999999999 470.4000000000001 368.2999999999999 464.9000000000001 C 367.8999999999999 464.6000000000001 367.6999999999999 464.1000000000001 367.6999999999999 463.6000000000001 L 367.6999999999999 463.50000000000006 C 367.8 463 367.9 462.7 368.1 462.4 z M 351.9 462.4 C 351.59999999999997 461.79999999999995 351.29999999999995 461.09999999999997 351.2 460.4 C 351.09999999999997 459.9 350.8 459.4 350.3 459.2 C 350 459 349.7 459 349.40000000000003 459 C 349.20000000000005 459 349.00000000000006 459.1 348.8 459.1 C 348.40000000000003 459.3 347.90000000000003 459.40000000000003 347.5 459.6 C 346.8 459.8 346 460 345.2 460.20000000000005 C 345.7 459.90000000000003 346.2 459.6 346.7 459.30000000000007 C 348.2 458.4000000000001 349.4 457.30000000000007 350.5 456.20000000000005 C 350.8 455.90000000000003 351 455.40000000000003 351 455.00000000000006 L 351 450.20000000000005 C 351 449.70000000000005 350.8 449.30000000000007 350.5 449.00000000000006 C 349 447.50000000000006 347.3 446.20000000000005 345.2 445.00000000000006 C 346.5 445.30000000000007 347.7 445.70000000000005 348.8 446.1000000000001 C 349 446.2000000000001 349.2 446.2000000000001 349.40000000000003 446.2000000000001 C 349.70000000000005 446.2000000000001 350.00000000000006 446.1000000000001 350.3 446.0000000000001 C 350.8 445.8000000000001 351.1 445.3000000000001 351.2 444.8000000000001 C 351.3 444.10000000000014 351.5 443.5000000000001 352 442.60000000000014 C 352.3 441.90000000000015 352.2 441.10000000000014 351.6 440.60000000000014 C 350.40000000000003 439.5000000000001 349.20000000000005 438.40000000000015 347.8 437.40000000000015 C 346.2 436.20000000000016 344.5 435.10000000000014 342.90000000000003 434.00000000000017 C 340.1 432.40000000000015 337.3 431.1000000000002 334.50000000000006 430.3000000000002 C 332.50000000000006 429.8000000000002 330.70000000000005 429.50000000000017 329.1000000000001 429.50000000000017 C 328.50000000000006 429.50000000000017 327.80000000000007 429.6000000000002 327.1000000000001 429.6000000000002 C 324.7000000000001 429.9000000000002 322.50000000000006 430.7000000000002 320.6000000000001 432.00000000000017 C 320.7000000000001 431.6000000000002 320.7000000000001 431.20000000000016 320.4000000000001 430.8000000000002 C 320.1000000000001 430.20000000000016 319.5000000000001 429.9000000000002 318.9000000000001 429.9000000000002 L 318.7000000000001 429.9000000000002 C 317.9000000000001 430.0000000000002 317.1000000000001 430.2000000000002 316.1000000000001 430.8000000000002 C 314.2000000000001 432.00000000000017 312.80000000000007 433.9000000000002 311.50000000000006 437.00000000000017 C 311.00000000000006 438.3000000000002 310.70000000000005 440.20000000000016 310.50000000000006 442.20000000000016 C 310.30000000000007 444.40000000000015 310.1000000000001 447.10000000000014 310.00000000000006 450.90000000000015 C 310.00000000000006 452.3000000000001 310.00000000000006 453.70000000000016 310.1000000000001 455.10000000000014 C 310.1000000000001 456.3000000000001 310.1000000000001 457.40000000000015 310.2000000000001 458.5000000000001 C 310.3000000000001 460.10000000000014 310.4000000000001 461.5000000000001 310.5000000000001 462.8000000000001 C 310.60000000000014 463.5000000000001 310.7000000000001 464.10000000000014 310.7000000000001 464.7000000000001 C 310.9000000000001 466.4000000000001 311.2000000000001 467.6000000000001 311.5000000000001 468.4000000000001 C 312.8000000000001 471.4000000000001 314.2000000000001 473.4000000000001 316.3000000000001 474.7000000000001 C 317.2000000000001 475.1000000000001 318.0000000000001 475.4000000000001 318.7000000000001 475.5000000000001 L 318.9000000000001 475.5000000000001 C 319.5000000000001 475.5000000000001 320.1000000000001 475.2000000000001 320.4000000000001 474.60000000000014 C 320.6000000000001 474.20000000000016 320.7000000000001 473.70000000000016 320.6000000000001 473.3000000000001 C 321.9000000000001 474.10000000000014 323.2000000000001 474.60000000000014 324.30000000000007 475.0000000000001 C 326.1000000000001 475.60000000000014 328.00000000000006 475.9000000000001 329.9000000000001 475.9000000000001 C 338.0000000000001 475.9000000000001 345.1000000000001 470.4000000000001 351.7000000000001 464.9000000000001 C 352.1000000000001 464.6000000000001 352.3000000000001 464.1000000000001 352.3000000000001 463.6000000000001 L 352.3000000000001 463.50000000000006 C 352.1 463 352.1 462.7 351.9 462.4 z M 361.5 464.1 C 364.3 464.1 366.6 461.8 366.6 458.90000000000003 L 366.6 446 C 366.6 443.1 364.3 440.8 361.5 440.8 L 358.5 440.8 C 355.7 440.8 353.4 443.1 353.4 446 L 353.4 459 C 353.4 461.9 355.7 464.2 358.5 464.2 L 361.5 464.2 z" stroke-linecap="round" />
</g>
		<g transform="matrix(0.41368256901778605 0 0 0.41368256901778605 -0.010049401920582568 44.30603849097773)"  >
<path style="stroke: none; stroke-width: 1; stroke-dasharray: none; stroke-linecap: butt; stroke-dashoffset: 0; stroke-linejoin: miter; stroke-miterlimit: 4; fill: rgb(156,157,9); fill-rule: nonzero; opacity: 1;"  paint-order="stroke"  transform=" translate(-360, -467.1)" d="M 372.5 459.5 C 372.7 459.3 373 459.3 373.3 459.2 C 373.5 459.09999999999997 373.6 459.09999999999997 373.8 459 C 378.5 460.5 383.3 461.9 388.2 462.2 C 393.09999999999997 462.5 398.3 461.5 402.2 458.5 C 404 460.7 406.8 462.2 409.7 462.6 C 409.59999999999997 463.3 409.5 463.90000000000003 409.5 464.5 C 409.3 466.2 409 467.4 408.7 468.2 C 407.4 471.2 406 473.2 403.9 474.5 C 403 474.9 402.2 475.2 401.5 475.3 L 401.3 475.3 C 400.7 475.3 400.1 475 399.8 474.40000000000003 C 399.6 474.00000000000006 399.5 473.50000000000006 399.6 473.1 C 398.3 473.90000000000003 397 474.40000000000003 395.90000000000003 474.8 C 394.1 475.40000000000003 392.20000000000005 475.7 390.3 475.7 C 382.2 475.7 375.1 470.2 368.5 464.7 C 368.1 464.4 367.9 463.9 367.9 463.4 L 367.9 463.29999999999995 C 369 461.6 370.6 460.3 372.5 459.5 z M 347.5 459.5 C 347.3 459.3 347 459.3 346.7 459.2 C 346.5 459.09999999999997 346.4 459.09999999999997 346.2 459 C 341.5 460.5 336.7 461.9 331.8 462.2 C 326.90000000000003 462.5 321.7 461.5 317.8 458.5 C 316 460.7 313.2 462.2 310.3 462.6 C 310.40000000000003 463.3 310.5 463.90000000000003 310.5 464.5 C 310.7 466.2 311 467.4 311.3 468.2 C 312.6 471.2 314 473.2 316.1 474.5 C 317 474.9 317.8 475.2 318.5 475.3 L 318.7 475.3 C 319.3 475.3 319.9 475 320.2 474.40000000000003 C 320.4 474.00000000000006 320.5 473.50000000000006 320.4 473.1 C 321.7 473.90000000000003 323 474.40000000000003 324.09999999999997 474.8 C 325.9 475.40000000000003 327.79999999999995 475.7 329.7 475.7 C 337.8 475.7 344.9 470.2 351.5 464.7 C 351.9 464.4 352.1 463.9 352.1 463.4 L 352.1 463.29999999999995 C 351 461.6 349.4 460.3 347.5 459.5 z" stroke-linecap="round" />
</g>
		<g transform="matrix(0.41368256901778605 0 0 0.41368256901778605 0.7900811407847073 79.61384575664565)"  >
<path style="stroke: none; stroke-width: 1; stroke-dasharray: none; stroke-linecap: butt; stroke-dashoffset: 0; stroke-linejoin: miter; stroke-miterlimit: 4; fill: rgb(122,69,17); fill-rule: nonzero; opacity: 1;"  paint-order="stroke"  transform=" translate(-361.93416547524566, -552.4499999999999)" d="M 362.9 639 C 362.4 639 362 638.8 361.7 638.5 C 361.4 638.2 361.2 637.7 361.2 637.3 L 361.2 591 C 361.2 590 362 589.3 362.9 589.3 C 364.29999999999995 589.3 365.9 589.1999999999999 367.4 589.0999999999999 C 368.09999999999997 589.0999999999999 368.59999999999997 588.9999999999999 369.2 588.8999999999999 C 369.2 588.8999999999999 370.3 588.7999999999998 370.4 588.7999999999998 C 370.79999999999995 588.7999999999998 371.2 588.9999999999999 371.59999999999997 589.1999999999998 C 371.99999999999994 589.4999999999998 372.2 589.9999999999998 372.2 590.4999999999998 C 372.2 594.5999999999998 372.09999999999997 608.9999999999998 372.8 621.6999999999998 C 372.8 621.7999999999998 372.8 621.7999999999998 372.8 621.8999999999999 C 380.3 624.7999999999998 386.3 629.8999999999999 389.8 636.3999999999999 C 390.1 636.8999999999999 390.1 637.5999999999999 389.8 638.0999999999999 C 389.5 638.5999999999999 388.90000000000003 638.8999999999999 388.3 638.8999999999999 L 362.9 639 z M 357.1 639 C 357.6 639 358 638.8 358.3 638.5 C 358.6 638.2 358.8 637.7 358.8 637.3 L 358.8 590.8 C 358.8 589.9 358.1 589.0999999999999 357.2 589.0999999999999 C 355.7 588.9999999999999 354.2 588.8 352.7 588.4999999999999 C 352.09999999999997 588.3999999999999 351.5 588.1999999999999 351 588.0999999999999 L 350 587.8 C 349.9 587.8 349.7 587.6999999999999 349.6 587.6999999999999 C 349.20000000000005 587.6999999999999 348.8 587.8 348.5 588.0999999999999 C 348.1 588.3999999999999 347.8 588.8999999999999 347.8 589.4999999999999 C 347.8 593.7999999999998 347.90000000000003 608.8999999999999 347.2 621.7999999999998 C 347.2 621.8999999999999 347.2 621.8999999999999 347.2 621.9999999999999 C 339.7 624.8999999999999 333.7 629.9999999999999 330.2 636.4999999999999 C 329.9 636.9999999999999 329.9 637.6999999999999 330.2 638.1999999999999 C 330.5 638.6999999999999 331.09999999999997 638.9999999999999 331.7 638.9999999999999 L 357.1 639 z M 295.6 537.1 C 298.3 536.8000000000001 301 536.5 303.70000000000005 536.1 C 305.6 535.8000000000001 307.6 535.5 309.50000000000006 535.2 C 320.40000000000003 533.3000000000001 331.30000000000007 530.7 341.90000000000003 528.1 C 349.70000000000005 526.2 357.8 524.3000000000001 365.8 522.6 C 382.3 519.2 395.7 517.6 407.90000000000003 517.6 C 411.6 517.6 415.3 517.7 418.90000000000003 518 C 419.6 518 420.20000000000005 518.1 420.90000000000003 518.2 C 421.00000000000006 518.2 421.1 518.2 421.20000000000005 518.2 C 421.6 518.2 422.00000000000006 518.1 422.30000000000007 517.8000000000001 C 422.70000000000005 517.5000000000001 422.9000000000001 517.0000000000001 423.00000000000006 516.6 C 423.1000000000001 514.6 422.50000000000006 512.5 421.20000000000005 511.1 C 420.90000000000003 510.5 420.30000000000007 510.20000000000005 419.6 510.20000000000005 C 419.6 510.20000000000005 419.5 510.20000000000005 419.5 510.20000000000005 C 417.3 509.90000000000003 415.1 509.70000000000005 413 509.50000000000006 C 415.4 509.30000000000007 417.9 509.20000000000005 420.2 509.20000000000005 C 421.09999999999997 509.20000000000005 422 509.20000000000005 422.9 509.20000000000005 C 423.79999999999995 509.20000000000005 425.59999999999997 509.20000000000005 425.7 509.20000000000005 C 426.3 509.20000000000005 426.8 508.90000000000003 427.09999999999997 508.50000000000006 C 427.4 508.00000000000006 427.49999999999994 507.40000000000003 427.29999999999995 506.90000000000003 C 426.79999999999995 505.70000000000005 426.09999999999997 504.50000000000006 425.29999999999995 504.00000000000006 C 424.4 503.30000000000007 423.09999999999997 502.80000000000007 420.99999999999994 502.30000000000007 C 420.09999999999997 502.1000000000001 419.09999999999997 502.00000000000006 418.09999999999997 502.00000000000006 C 413.59999999999997 501.6000000000001 408.99999999999994 501.40000000000003 404.4 501.40000000000003 C 392.29999999999995 501.40000000000003 379.9 502.70000000000005 367.7 505.20000000000005 L 367.7 505.1 C 369.2 499.20000000000005 371 492.6 369.3 487.40000000000003 C 368.6 484.3 366.2 481.20000000000005 363.40000000000003 479.8 C 363.20000000000005 479.7 362.90000000000003 479.6 362.6 479.6 C 362.20000000000005 479.6 361.8 479.70000000000005 361.40000000000003 480 C 360.90000000000003 480.5 360.70000000000005 481.2 360.90000000000003 481.9 C 363.1 488.29999999999995 361.20000000000005 493.9 359.20000000000005 497.59999999999997 C 355.20000000000005 504.9 347.30000000000007 510.99999999999994 338.80000000000007 513.1999999999999 C 333.50000000000006 514.9999999999999 327.6000000000001 516.0999999999999 321.9000000000001 517.0999999999999 C 316.6000000000001 518.0999999999999 311.2000000000001 518.9999999999999 306.1000000000001 520.6999999999999 C 303.80000000000007 521.4999999999999 301.9000000000001 522.1999999999999 300.30000000000007 522.9999999999999 C 298.00000000000006 524.0999999999999 296.00000000000006 525.2999999999998 294.1000000000001 526.6999999999999 L 293.9000000000001 524.8 L 293.4000000000001 521.3 C 291.0000000000001 504.69999999999993 288.5000000000001 487.59999999999997 296.0000000000001 472.69999999999993 C 296.10000000000014 472.3999999999999 296.2000000000001 471.99999999999994 296.2000000000001 471.69999999999993 L 295.8000000000001 467.8999999999999 C 295.7000000000001 466.99999999999994 295.0000000000001 466.2999999999999 294.10000000000014 466.2999999999999 C 294.10000000000014 466.2999999999999 294.0000000000001 466.2999999999999 294.0000000000001 466.2999999999999 C 292.5000000000001 466.3999999999999 291.10000000000014 466.4999999999999 289.60000000000014 466.4999999999999 C 288.0000000000001 466.4999999999999 286.5000000000001 466.39999999999986 284.90000000000015 466.2999999999999 C 284.8000000000001 466.2999999999999 284.8000000000001 466.2999999999999 284.70000000000016 466.2999999999999 C 284.10000000000014 466.2999999999999 283.50000000000017 466.6999999999999 283.10000000000014 467.1999999999999 C 277.5000000000001 477.89999999999986 278.0000000000001 492.39999999999986 278.3000000000001 504.09999999999985 L 278.3000000000001 504.89999999999986 C 278.90000000000015 514.4999999999999 280.0000000000001 524.4999999999999 283.60000000000014 532.4999999999999 C 284.5000000000001 534.5999999999999 286.90000000000015 537.0999999999999 293.60000000000014 537.0999999999999 C 294.4 537.2 294.9 537.1 295.6 537.1 z M 440.1 532.8 C 443.1 526.8 444.1 519.8 444.90000000000003 512.5999999999999 C 445.70000000000005 504.7999999999999 445.90000000000003 497.19999999999993 445.6 489.9999999999999 C 445.20000000000005 480.1999999999999 443.5 472.5999999999999 440.5 466.7999999999999 C 440.2 466.1999999999999 439.6 465.8999999999999 439 465.8999999999999 C 438.9 465.8999999999999 438.8 465.8999999999999 438.8 465.8999999999999 C 436.2 466.2999999999999 433.40000000000003 466.49999999999994 430.1 466.49999999999994 C 429.20000000000005 466.49999999999994 428.40000000000003 467.19999999999993 428.40000000000003 468.09999999999997 L 428.1 472.2 C 428.1 472.5 428.1 472.9 428.3 473.2 C 437.5 490.8 433.40000000000003 507.8 429.40000000000003 524.3 L 429.00000000000006 526.0999999999999 L 427.6000000000001 524.9999999999999 C 426.6000000000001 524.1999999999999 425.7000000000001 523.6999999999999 424.80000000000007 523.1999999999999 C 424.6000000000001 523.0999999999999 424.30000000000007 522.9999999999999 424.00000000000006 522.9999999999999 C 423.70000000000005 522.9999999999999 423.50000000000006 523.0999999999999 423.20000000000005 523.1999999999999 C 422.70000000000005 523.4 422.30000000000007 523.9 422.20000000000005 524.4999999999999 C 421.6 527.7999999999998 421.1 530.9999999999999 420.30000000000007 534.2999999999998 C 420.20000000000005 534.7999999999998 420.30000000000007 535.2999999999998 420.50000000000006 535.6999999999998 C 420.80000000000007 536.0999999999998 421.20000000000005 536.3999999999999 421.70000000000005 536.3999999999999 C 424.6 536.8999999999999 427.6 537.2999999999998 430.50000000000006 537.2999999999998 C 435.3 537.2 438.5 535.8 440.1 532.8 z" stroke-linecap="round" />
</g>
		<g transform="matrix(0.41368256901778605 0 0 0.41368256901778605 0.01063472653044073 29.247992978730366)"  >
<path style="stroke: none; stroke-width: 1; stroke-dasharray: none; stroke-linecap: butt; stroke-dashoffset: 0; stroke-linejoin: miter; stroke-miterlimit: 4; fill: rgb(211,195,163); fill-rule: nonzero; opacity: 1;"  paint-order="stroke"  transform=" translate(-360.0499999999999, -430.70000000000005)" d="M 445.6 448.1 C 443.20000000000005 448 440.70000000000005 447.5 438.20000000000005 446.70000000000005 C 435.50000000000006 445.80000000000007 432.90000000000003 444.50000000000006 430.40000000000003 442.80000000000007 C 428.40000000000003 441.50000000000006 426.3 439.80000000000007 424.40000000000003 437.9000000000001 C 420.20000000000005 433.7000000000001 416.70000000000005 428.5000000000001 413.8 422.5000000000001 C 408.7 411.8000000000001 403.8 405.2000000000001 400.6 401.4000000000001 C 400.1 400.80000000000007 400 400.0000000000001 400.40000000000003 399.30000000000007 C 400.70000000000005 398.80000000000007 401.3 398.50000000000006 401.90000000000003 398.50000000000006 C 402.00000000000006 398.50000000000006 402.20000000000005 398.50000000000006 402.3 398.6000000000001 C 403.8 399.00000000000006 405.2 399.50000000000006 406.5 400.00000000000006 C 412.7 402.6000000000001 418.5 407.70000000000005 424.2 415.40000000000003 C 425.3 416.90000000000003 426.4 418.50000000000006 427.4 420.00000000000006 L 433 428.90000000000003 C 434.4 431.20000000000005 435.9 433.50000000000006 437.5 435.6 C 439.3 438.1 442.1 441.8 445.9 444.6 C 446.7 444.90000000000003 447.29999999999995 445.8 447.09999999999997 446.6 C 447.2 447.5 446.5 448.1 445.6 448.1 C 445.6 448.1 445.6 448.1 445.6 448.1 z M 430.3 464.1 C 431.90000000000003 464.1 433.6 464 435.2 463.90000000000003 C 437.3 463.8 439.5 463.50000000000006 442.09999999999997 462.90000000000003 L 443.59999999999997 462.50000000000006 C 455.59999999999997 459.6000000000001 465.59999999999997 452.70000000000005 470.99999999999994 443.50000000000006 C 471.99999999999994 441.80000000000007 472.69999999999993 440.30000000000007 473.19999999999993 438.90000000000003 C 473.49999999999994 438.00000000000006 473.0999999999999 437.1 472.19999999999993 436.70000000000005 C 471.99999999999994 436.6 471.79999999999995 436.6 471.49999999999994 436.6 C 470.79999999999995 436.6 470.19999999999993 437 469.8999999999999 437.6 C 469.49999999999994 438.5 468.99999999999994 439.40000000000003 468.49999999999994 440.20000000000005 C 466.3999999999999 443.70000000000005 463.19999999999993 446.20000000000005 460.09999999999997 447.30000000000007 C 459.79999999999995 447.30000000000007 459.49999999999994 447.4000000000001 459.29999999999995 447.50000000000006 C 455.49999999999994 449.50000000000006 451.29999999999995 450.50000000000006 446.79999999999995 450.50000000000006 C 443.59999999999997 450.50000000000006 440.4 450.00000000000006 437.29999999999995 448.90000000000003 C 435.19999999999993 448.20000000000005 433.4 447.40000000000003 431.79999999999995 446.40000000000003 C 429.99999999999994 445.50000000000006 428.29999999999995 444.3 426.4 442.8 C 420.5 438.2 415.4 431.5 411.59999999999997 423.5 C 403.7 406.6 395.79999999999995 399.5 393.49999999999994 397.7 C 393.19999999999993 397.5 392.79999999999995 397.3 392.3999999999999 397.3 C 390.19999999999993 397.3 387.99999999999994 397.40000000000003 385.8999999999999 397.7 C 385.49999999999994 397.7 384.19999999999993 397.9 384.19999999999993 397.9 C 383.49999999999994 398 382.8999999999999 398.5 382.69999999999993 399.2 C 382.49999999999994 399.9 382.79999999999995 400.59999999999997 383.3999999999999 401.09999999999997 C 391.0999999999999 406.59999999999997 395.99999999999994 415.4 400.69999999999993 423.9 L 402.3999999999999 427 C 402.5999999999999 427.4 402.99999999999994 427.7 403.3999999999999 427.8 C 403.8999999999999 428 404.49999999999994 428.2 404.99999999999994 428.6 C 407.3999999999999 430 409.19999999999993 432.40000000000003 410.49999999999994 435.8 C 410.8999999999999 436.90000000000003 411.29999999999995 438.5 411.49999999999994 440.40000000000003 C 411.49999999999994 440.8 411.69999999999993 441.1 411.8999999999999 441.40000000000003 C 415.5999999999999 445.70000000000005 419.69999999999993 449.20000000000005 423.8999999999999 451.70000000000005 C 420.7999999999999 450.40000000000003 417.69999999999993 448.6 414.8999999999999 446.40000000000003 C 414.5999999999999 446.20000000000005 414.19999999999993 446.00000000000006 413.7999999999999 446.00000000000006 C 413.4999999999999 446.00000000000006 413.1999999999999 446.1000000000001 412.9999999999999 446.20000000000005 C 412.39999999999986 446.50000000000006 411.9999999999999 447.20000000000005 412.0999999999999 447.80000000000007 C 412.19999999999993 449.80000000000007 412.19999999999993 452.00000000000006 412.19999999999993 454.1000000000001 C 412.19999999999993 454.6000000000001 412.3999999999999 455.00000000000006 412.69999999999993 455.30000000000007 C 412.3999999999999 455.6000000000001 412.19999999999993 456.1000000000001 412.19999999999993 456.50000000000006 C 412.19999999999993 457.6000000000001 412.0999999999999 458.6000000000001 412.0999999999999 459.70000000000005 C 412.0999999999999 460.50000000000006 412.5999999999999 461.30000000000007 413.3999999999999 461.50000000000006 C 416.99999999999994 462.50000000000006 420.5999999999999 463.20000000000005 424.2999999999999 463.50000000000006 C 425.9999999999999 463.80000000000007 427.6999999999999 463.90000000000003 429.2999999999999 463.90000000000003 L 430.3 464.1 z M 396.1 428.5 C 396.5 428.2 396.90000000000003 428 397.3 427.9 C 397.8 427.79999999999995 398.2 427.4 398.40000000000003 426.9 C 398.6 426.4 398.6 425.79999999999995 398.3 425.4 L 397.8 424.5 C 392.5 415.2 386.90000000000003 405.5 377.8 399.7 C 377.5 399.5 377.2 399.4 376.90000000000003 399.4 C 376.8 399.4 376.70000000000005 399.4 376.6 399.4 C 374.6 399.79999999999995 372.70000000000005 400.2 371 400.7 C 370.3 400.9 369.8 401.5 369.7 402.2 C 369.59999999999997 402.9 370 403.59999999999997 370.59999999999997 403.9 C 378.59999999999997 408.4 383.49999999999994 417.9 388.2 426.79999999999995 C 388.5 427.29999999999995 389 427.69999999999993 389.59999999999997 427.69999999999993 C 391.2 427.79999999999995 392.79999999999995 428.19999999999993 394.4 428.79999999999995 C 394.59999999999997 428.9 394.79999999999995 428.9 395 428.9 C 395.5 428.8 395.8 428.7 396.1 428.5 z M 375.3 431.6 C 378.1 430 380.7 428.8 383.2 428.20000000000005 C 383.7 428.1 384.2 427.70000000000005 384.4 427.20000000000005 C 384.59999999999997 426.70000000000005 384.59999999999997 426.1 384.29999999999995 425.70000000000005 L 383.69999999999993 424.70000000000005 C 378.99999999999994 416.1 374.19999999999993 407.1 364.79999999999995 403.1 C 364.59999999999997 403 364.4 403 364.09999999999997 403 C 363.9 403 363.7 403 363.59999999999997 403.1 C 363.2 403.20000000000005 362.7 403.40000000000003 362.29999999999995 403.70000000000005 C 361.59999999999997 404.1 361.29999999999995 404.90000000000003 361.49999999999994 405.70000000000005 C 364.09999999999997 415.00000000000006 367.99999999999994 423.50000000000006 372.8999999999999 431.1 C 373.19999999999993 431.6 373.7999999999999 431.90000000000003 374.3999999999999 431.90000000000003 C 374.7 431.8 375 431.8 375.3 431.6 z M 347 431.1 C 351.9 423.5 355.8 415 358.4 405.70000000000005 C 358.59999999999997 404.90000000000003 357.79999999999995 403.80000000000007 357 403.50000000000006 C 357 403.50000000000006 356.5 403.30000000000007 356.4 403.20000000000005 C 356.2 403.1 356 403.1 355.7 403.1 C 355.4 403.1 355.2 403.20000000000005 355 403.3 C 345.5 407.8 340.2 416.5 335.2 425.7 C 334.9 426.2 334.9 426.8 335.2 427.3 C 335.4 427.8 335.9 428.2 336.4 428.3 C 338.9 428.8 341.7 430 344.5 431.7 C 344.8 431.9 345.1 431.9 345.4 431.9 C 346.1 431.8 346.7 431.6 347 431.1 z M 325.5 428.7 C 326.9 428.09999999999997 328.4 427.8 330.3 427.59999999999997 C 330.90000000000003 427.49999999999994 331.40000000000003 427.2 331.7 426.7 C 336.3 417.8 341.09999999999997 408.59999999999997 349.59999999999997 403.9 C 350.2 403.59999999999997 350.59999999999997 402.9 350.49999999999994 402.2 C 350.3999999999999 401.5 349.8999999999999 400.9 349.19999999999993 400.7 C 347.49999999999994 400.2 345.49999999999994 399.7 343.3999999999999 399.4 C 343.2999999999999 399.4 343.19999999999993 399.4 343.0999999999999 399.4 C 342.7999999999999 399.4 342.3999999999999 399.5 342.0999999999999 399.7 C 333.19999999999993 405.5 327.7999999999999 414.8 322.5999999999999 423.8 L 321.69999999999993 425.40000000000003 C 321.3999999999999 425.90000000000003 321.3999999999999 426.40000000000003 321.5999999999999 426.90000000000003 C 321.7999999999999 427.40000000000003 322.19999999999993 427.8 322.7999999999999 427.90000000000003 C 323.1999999999999 428.00000000000006 323.6999999999999 428.3 323.9999999999999 428.50000000000006 C 324.2999999999999 428.70000000000005 324.5999999999999 428.80000000000007 324.9999999999999 428.80000000000007 C 325.1 428.8 325.3 428.8 325.5 428.7 z M 288.9 464.1 C 290.5 464.1 292.2 464 293.79999999999995 463.90000000000003 C 295.79999999999995 463.8 297.69999999999993 463.50000000000006 299.69999999999993 463.20000000000005 C 301.8999999999999 462.90000000000003 304.0999999999999 462.40000000000003 306.5999999999999 461.6 C 307.3999999999999 461.40000000000003 307.8999999999999 460.40000000000003 307.7999999999999 459.6 C 307.6999999999999 458.6 307.6999999999999 457.6 307.6999999999999 456.6 C 307.6999999999999 456.1 307.4999999999999 455.70000000000005 307.1999999999999 455.40000000000003 C 307.4999999999999 455.1 307.6999999999999 454.6 307.59999999999985 454.20000000000005 C 307.49999999999983 452.1 307.49999999999983 450.00000000000006 307.6999999999999 447.90000000000003 C 307.6999999999999 447.20000000000005 307.39999999999986 446.6 306.7999999999999 446.3 C 306.4999999999999 446.2 306.2999999999999 446.1 305.9999999999999 446.1 C 305.5999999999999 446.1 305.2999999999999 446.20000000000005 304.89999999999986 446.5 C 302.4999999999999 448.3 300.09999999999985 449.8 297.6999999999999 451 C 296.7999999999999 451.4 295.89999999999986 451.8 294.89999999999986 452.2 C 294.89999999999986 452.2 294.79999999999984 452.2 294.79999999999984 452.2 C 296.1999999999998 451.4 297.59999999999985 450.5 298.89999999999986 449.5 C 299.39999999999986 449.2 299.89999999999986 448.8 300.39999999999986 448.4 C 303.09999999999985 446.4 305.59999999999985 444.09999999999997 307.79999999999984 441.5 C 307.99999999999983 441.2 308.09999999999985 440.9 308.1999999999998 440.6 C 308.49999999999983 438.5 308.79999999999984 436.90000000000003 309.29999999999984 435.8 C 310.6999999999998 432.40000000000003 312.49999999999983 430 314.79999999999984 428.6 C 315.29999999999984 428.3 315.89999999999986 428 316.39999999999986 427.8 C 316.79999999999984 427.7 317.1999999999999 427.40000000000003 317.39999999999986 427 L 319.09999999999985 424 C 323.99999999999983 415.1 328.59999999999985 406.7 336.49999999999983 401.2 C 337.09999999999985 400.8 337.3999999999998 400 337.1999999999998 399.3 C 336.99999999999983 398.6 336.3999999999998 398.1 335.6999999999998 398 L 333.99999999999983 397.8 C 331.8999999999998 397.5 329.79999999999984 397.40000000000003 327.49999999999983 397.40000000000003 C 327.09999999999985 397.40000000000003 326.6999999999998 397.50000000000006 326.3999999999998 397.8 C 324.1999999999998 399.6 316.2999999999998 406.6 308.2999999999998 423.6 C 305.0999999999998 430.40000000000003 300.9999999999998 436.1 296.19999999999976 440.6 C 294.4999999999998 442.20000000000005 292.7999999999998 443.5 290.9999999999998 444.70000000000005 C 288.2999999999998 446.50000000000006 285.4999999999998 448.00000000000006 282.4999999999998 449.00000000000006 C 279.2999999999998 450.1000000000001 276.0999999999998 450.6000000000001 272.89999999999975 450.6000000000001 C 268.39999999999975 450.6000000000001 264.19999999999976 449.6000000000001 259.9999999999998 447.50000000000006 C 256.39999999999975 446.40000000000003 253.29999999999978 443.80000000000007 251.19999999999976 440.40000000000003 C 250.79999999999976 439.70000000000005 250.49999999999977 439.20000000000005 250.19999999999976 438.50000000000006 C 249.89999999999975 437.90000000000003 249.29999999999976 437.50000000000006 248.59999999999977 437.50000000000006 C 248.39999999999978 437.50000000000006 248.19999999999976 437.50000000000006 247.89999999999978 437.6000000000001 C 246.99999999999977 438.00000000000006 246.59999999999977 438.9000000000001 246.89999999999978 439.80000000000007 C 247.39999999999978 441.1000000000001 247.99999999999977 442.4000000000001 248.79999999999978 443.70000000000005 C 254.1999999999998 452.90000000000003 264.19999999999976 459.80000000000007 276.19999999999976 462.70000000000005 C 277.9999999999998 463.1 279.7999999999998 463.50000000000006 281.59999999999974 463.70000000000005 C 284 463.9 286.3 464.1 288.9 464.1 C 288.8 464.1 288.8 464.1 288.9 464.1 z M 274.4 448.1 C 276.79999999999995 448 279.29999999999995 447.5 281.79999999999995 446.70000000000005 C 285.49999999999994 445.50000000000006 289.09999999999997 443.50000000000006 292.4 440.70000000000005 C 294.59999999999997 438.80000000000007 296.4 437.1 297.79999999999995 435.30000000000007 C 300.79999999999995 431.9000000000001 303.49999999999994 427.70000000000005 305.99999999999994 422.4000000000001 C 311.09999999999997 411.7000000000001 315.99999999999994 405.0000000000001 319.19999999999993 401.30000000000007 C 319.69999999999993 400.70000000000005 319.79999999999995 399.9000000000001 319.3999999999999 399.20000000000005 C 319.0999999999999 398.70000000000005 318.49999999999994 398.40000000000003 317.8999999999999 398.40000000000003 C 317.7999999999999 398.40000000000003 317.5999999999999 398.40000000000003 317.49999999999994 398.50000000000006 C 315.99999999999994 398.90000000000003 314.69999999999993 399.40000000000003 313.29999999999995 399.90000000000003 C 306.99999999999994 402.50000000000006 301.19999999999993 407.50000000000006 295.59999999999997 415.20000000000005 C 294.9 416.20000000000005 294.2 417.20000000000005 293.49999999999994 418.20000000000005 C 291.79999999999995 420.70000000000005 290.09999999999997 423.30000000000007 288.8999999999999 425.50000000000006 C 288.7999999999999 425.6000000000001 288.49999999999994 425.90000000000003 288.49999999999994 426.00000000000006 C 286.49999999999994 429.20000000000005 284.49999999999994 432.40000000000003 282.29999999999995 435.50000000000006 C 280.49999999999994 438.00000000000006 277.69999999999993 441.70000000000005 273.59999999999997 444.6000000000001 C 272.79999999999995 444.9000000000001 272.4 445.7000000000001 272.49999999999994 446.50000000000006 C 272.8 447.5 273.5 448.1 274.4 448.1 C 274.4 448.1 274.4 448.1 274.4 448.1 z" stroke-linecap="round" />
</g>
		<g transform="matrix(0.41368256901778605 0 0 0.41368256901778605 0 0)"  >
<path style="stroke: none; stroke-width: 1; stroke-dasharray: none; stroke-linecap: butt; stroke-dashoffset: 0; stroke-linejoin: miter; stroke-miterlimit: 4; fill: rgb(52,51,0); fill-rule: nonzero; opacity: 1;"  paint-order="stroke"  transform=" translate(-360.0242925437839, -359.99846416257196)" d="M 382.4 373 L 382.4 379.9 C 382.4 383.59999999999997 379.4 386.59999999999997 375.7 386.59999999999997 C 372 386.59999999999997 369 383.59999999999997 369 379.9 L 369 373 C 369 369.3 372 366.3 375.7 366.3 C 379.4 366.2 382.4 369.3 382.4 373 z M 478.2 447.9 L 478.2 447.9 C 472.4 457.7 462.4 465.29999999999995 450.5 469.29999999999995 C 452.4 475.09999999999997 453.6 481.9 453.9 489.59999999999997 C 454.2 497.4 454 505.4 453.09999999999997 513.5999999999999 C 452.2 521.9999999999999 451.09999999999997 529.6999999999999 447.4 536.6999999999999 C 444.4 542.5999999999999 438.5 545.5999999999999 429.9 545.5999999999999 C 427.7 545.5999999999999 425.4 545.3999999999999 423.4 545.0999999999999 C 420.59999999999997 554.5999999999999 417 562.6999999999999 412.5 569.8 C 405.3 581.1999999999999 394.5 588.9 380.5 592.8 C 380.4 598.5 380.5 608.6999999999999 380.9 618.3 C 389.9 621.3 396.2 627.1999999999999 399.59999999999997 638.0999999999999 C 400.9 642.3 401.7 647.1999999999999 401.7 647.1999999999999 L 360.3 647.3 L 339.1 647.3 L 318.3 647.1999999999999 C 318.3 647.1999999999999 318.90000000000003 643.4 319.90000000000003 639.5999999999999 C 320.00000000000006 639.0999999999999 320.20000000000005 638.5999999999999 320.40000000000003 637.9999999999999 C 320.40000000000003 637.8999999999999 320.50000000000006 637.7999999999998 320.50000000000006 637.7999999999998 C 321.70000000000005 634.0999999999998 323.20000000000005 631.0999999999998 325.00000000000006 628.4999999999999 C 325.00000000000006 628.3999999999999 325.1000000000001 628.3999999999999 325.1000000000001 628.3999999999999 C 325.4000000000001 627.9999999999999 325.80000000000007 627.4999999999999 326.1000000000001 627.0999999999999 C 329.4000000000001 622.8999999999999 333.80000000000007 619.9999999999999 339.1000000000001 618.3 C 339.6000000000001 607.5 339.6000000000001 595.9 339.6000000000001 590.4 C 334.9000000000001 588.4 330.6000000000001 585.6999999999999 326.7000000000001 582.5 C 315.8000000000001 573.4 307.8000000000001 561.1 302.2000000000001 544.8 C 293.4000000000001 546.0999999999999 282.2000000000001 546.5999999999999 276.6000000000001 536.5 L 276.30000000000007 535.9 C 270.70000000000005 521.4 266.4000000000001 491.7 273.30000000000007 470.29999999999995 C 259.70000000000005 466.79999999999995 248.20000000000007 458.59999999999997 241.80000000000007 447.69999999999993 C 234.00000000000006 434.69999999999993 234.20000000000007 418.0999999999999 242.30000000000007 406.5999999999999 C 246.40000000000006 400.69999999999993 252.10000000000008 396.69999999999993 258.4000000000001 395.2999999999999 C 264.30000000000007 394.0999999999999 270.80000000000007 395.3999999999999 276.2000000000001 399.0999999999999 C 279.3000000000001 401.2999999999999 281.9000000000001 404.0999999999999 283.8000000000001 407.19999999999993 C 283.5000000000001 399.3999999999999 284.7000000000001 390.19999999999993 292.5000000000001 385.3999999999999 C 296.5000000000001 382.7999999999999 300.60000000000014 383.49999999999994 303.10000000000014 383.8999999999999 C 303.20000000000016 383.8999999999999 303.3000000000001 383.99999999999994 303.40000000000015 383.99999999999994 C 303.60000000000014 382.99999999999994 303.8000000000001 380.8999999999999 303.8000000000001 376.8999999999999 L 303.8000000000001 374.8999999999999 C 304.5000000000001 350.8999999999999 302.40000000000015 325.3999999999999 300.60000000000014 302.9999999999999 L 300.40000000000015 300.5999999999999 C 299.00000000000017 283.9999999999999 298.20000000000016 267.69999999999993 303.8000000000001 251.5999999999999 C 306.10000000000014 245.1999999999999 309.60000000000014 240.0999999999999 312.60000000000014 235.6999999999999 C 316.90000000000015 229.6999999999999 320.40000000000015 224.6999999999999 321.0000000000001 217.5999999999999 C 321.7000000000001 209.7999999999999 322.2000000000001 201.7999999999999 322.60000000000014 194.1999999999999 L 322.70000000000016 193.1999999999999 C 323.10000000000014 185.49999999999991 323.60000000000014 177.0999999999999 324.3000000000002 168.7999999999999 C 326.00000000000017 149.0999999999999 328.20000000000016 124.6999999999999 330.6000000000002 101.2999999999999 C 333.00000000000017 78.2999999999999 344.00000000000017 73.5999999999999 350.4000000000002 72.7999999999999 C 357.7000000000002 71.9999999999999 365.6000000000002 75.89999999999989 370.2000000000002 82.9999999999999 C 373.7000000000002 88.5999999999999 375.0000000000002 94.7999999999999 376.1000000000002 99.89999999999989 C 379.3000000000002 116.0999999999999 381.8000000000002 132.2999999999999 384.2000000000002 147.9999999999999 L 384.5000000000002 150.19999999999987 C 386.0000000000002 159.89999999999986 387.5000000000002 169.39999999999986 389.0000000000002 178.9999999999999 C 389.4000000000002 181.4999999999999 389.80000000000024 183.69999999999987 390.2000000000002 185.59999999999988 C 390.4000000000002 185.3999999999999 390.5000000000002 185.29999999999987 390.7000000000002 185.09999999999988 C 394.0000000000002 181.69999999999987 398.1000000000002 180.59999999999988 401.9000000000002 182.09999999999988 C 406.8000000000002 183.8999999999999 411.6000000000002 189.29999999999987 413.0000000000002 215.9999999999999 C 413.5000000000002 224.4999999999999 413.7000000000002 232.7999999999999 413.9000000000002 240.8999999999999 L 414.0000000000002 245.1999999999999 C 414.10000000000025 247.8999999999999 414.10000000000025 250.5999999999999 414.2000000000002 253.2999999999999 C 414.7000000000002 268.0999999999999 415.5000000000002 282.9999999999999 416.5000000000002 298.2999999999999 L 417.2000000000002 310.2999999999999 C 420.9000000000002 309.5999999999999 425.0000000000002 310.3999999999999 428.2000000000002 312.5999999999999 C 431.9000000000002 315.19999999999993 434.2000000000002 319.2999999999999 434.5000000000002 323.9999999999999 C 435.5000000000002 350.2999999999999 436.5000000000002 378.2999999999999 436.4000000000002 407.1999999999999 C 438.2000000000002 404.09999999999985 440.8000000000002 401.39999999999986 443.8000000000002 399.1999999999999 C 449.20000000000016 395.4999999999999 455.70000000000016 394.1999999999999 461.6000000000002 395.39999999999986 C 468.00000000000017 396.79999999999984 473.7000000000002 400.79999999999984 477.8000000000002 406.6999999999999 C 485.9 418.3 486 434.9 478.2 447.9 z M 453.1 421.3 C 453.3 424.8 455.70000000000005 427.8 457.70000000000005 429.8 C 459.70000000000005 431.5 461.30000000000007 432.5 462.50000000000006 433.1 C 463.00000000000006 431.5 463.40000000000003 429.8 463.50000000000006 427.70000000000005 C 463.70000000000005 424.80000000000007 463.40000000000003 420.90000000000003 461.40000000000003 418.20000000000005 C 460.1 416.30000000000007 458.3 415.50000000000006 456.90000000000003 415.50000000000006 C 456.70000000000005 415.50000000000006 456.50000000000006 415.50000000000006 456.3 415.6000000000001 C 454.3 416 452.9 419 453.1 421.3 z M 426.1 421 C 425.1 419.5 424.1 417.9 423 416.5 C 417.5 409.1 412 404.2 406.1 401.7 C 404.8 401.2 403.5 400.7 402.1 400.4 C 405.8 404.7 410.6 411.59999999999997 415.5 421.9 C 418.3 427.79999999999995 421.8 432.9 425.7 436.79999999999995 C 427.5 438.59999999999997 429.4 440.19999999999993 431.4 441.49999999999994 C 433.7 443.09999999999997 436.2 444.29999999999995 438.7 445.19999999999993 C 441 445.99999999999994 443.4 446.3999999999999 445.7 446.49999999999994 C 445.5 446.3999999999999 445.3 446.29999999999995 445.09999999999997 446.19999999999993 C 441.29999999999995 443.49999999999994 438.4 439.79999999999995 436.29999999999995 436.79999999999995 C 434.69999999999993 434.59999999999997 433.19999999999993 432.29999999999995 431.79999999999995 429.99999999999994 C 431.19999999999993 428.99999999999994 430.49999999999994 427.99999999999994 429.9 426.99999999999994 C 428.6 424.9 427.3 423 426.1 421 z M 426.1 403.4 L 425.6 403.4 C 423.1 403.4 420.70000000000005 403.2 418.20000000000005 402.79999999999995 C 420.90000000000003 405.09999999999997 423.50000000000006 407.9 426.1 411.19999999999993 L 426.1 403.4 z M 294.2 410.7 C 299.7 403.7 305.5 398.9 311.8 396.3 C 318.3 393.5 325.90000000000003 392.7 334.5 393.8 C 346.5 395.3 355.1 397.6 360 400.40000000000003 C 363 398.70000000000005 367.4 397.20000000000005 373 395.90000000000003 C 365.5 393.20000000000005 359.8 386.50000000000006 358.8 378.20000000000005 C 357.40000000000003 366.30000000000007 365.90000000000003 355.6 377.7 354.20000000000005 C 383.5 353.6 389 355.1 393.59999999999997 358.70000000000005 C 398.09999999999997 362.20000000000005 400.99999999999994 367.40000000000003 401.7 373.1 C 402 375.1 401.9 377.1 401.59999999999997 379.1 C 401.49999999999994 379.6 401.4 380.1 401.2 380.70000000000005 C 402.4 382.00000000000006 403.3 383.80000000000007 403.5 385.70000000000005 C 403.7 387.30000000000007 403.4 388.80000000000007 402.9 390.20000000000005 C 409.5 395.00000000000006 417.79999999999995 397.6 426 397.6 C 425.9 372.90000000000003 425.1 348.5 424.2 324.6 C 424.09999999999997 323.20000000000005 423.4 321.90000000000003 422.3 321.1 C 421.1 320.3 419.8 320.1 418.40000000000003 320.6 C 415.70000000000005 321.40000000000003 412.90000000000003 320.90000000000003 410.70000000000005 319.3 C 408.50000000000006 317.7 407.20000000000005 315.3 407.00000000000006 312.6 L 406.20000000000005 299 C 405.30000000000007 284.2 404.30000000000007 268.8 403.90000000000003 253.8 C 403.70000000000005 249.8 403.70000000000005 245.8 403.6 241.70000000000002 C 403.40000000000003 233.60000000000002 403.3 225.20000000000002 402.8 217.00000000000003 C 401.8 197.70000000000002 399.1 192.90000000000003 398.3 191.90000000000003 C 398.2 192.00000000000003 398.1 192.10000000000002 398 192.20000000000005 C 397.4 192.80000000000004 397.4 194.90000000000003 397.3 196.50000000000006 C 397.2 199.30000000000007 397.2 203.00000000000006 394.40000000000003 205.00000000000006 C 393.90000000000003 205.30000000000007 393.40000000000003 205.60000000000005 392.90000000000003 205.80000000000007 L 392.6 206.30000000000007 L 392.20000000000005 206.10000000000008 C 391.1 206.4000000000001 390.00000000000006 206.4000000000001 388.90000000000003 205.9000000000001 C 386.20000000000005 204.9000000000001 382.20000000000005 201.10000000000008 379.00000000000006 181.10000000000008 C 377.30000000000007 171.00000000000009 375.80000000000007 161.4000000000001 374.30000000000007 151.70000000000007 C 371.9000000000001 135.40000000000006 369.20000000000005 118.50000000000007 366.00000000000006 102.10000000000008 C 365.1000000000001 97.60000000000008 364.00000000000006 92.60000000000008 361.50000000000006 88.60000000000008 C 359.40000000000003 85.40000000000008 355.6000000000001 82.40000000000008 351.40000000000003 82.90000000000008 C 343.6 83.80000000000008 341.3 95.50000000000007 340.6 102.30000000000007 C 338.20000000000005 125.40000000000006 336.1 148.20000000000007 334.3 169.60000000000008 C 333.6 177.60000000000008 333.1 185.70000000000007 332.7 193.60000000000008 C 332.2 201.80000000000007 331.8 210.20000000000007 331 218.50000000000009 C 330.1 228.20000000000007 325.5 234.8000000000001 321.1 241.20000000000007 C 318 245.60000000000008 315.1 249.70000000000007 313.20000000000005 255.00000000000009 C 308.30000000000007 269.0000000000001 309.1 284.1000000000001 310.30000000000007 299.7000000000001 C 312.30000000000007 323.2000000000001 314.50000000000006 349.8000000000001 313.80000000000007 375.10000000000014 L 313.80000000000007 377.0000000000001 C 313.80000000000007 381.9000000000001 313.70000000000005 388.60000000000014 310.30000000000007 392.0000000000001 C 307.30000000000007 395.0000000000001 303.80000000000007 394.5000000000001 301.30000000000007 394.10000000000014 C 299.6000000000001 393.8000000000001 298.50000000000006 393.70000000000016 297.6000000000001 394.20000000000016 C 293.4 396.8 293.5 404.6 294.2 410.7 z M 403.2 438.6 C 401.59999999999997 434.90000000000003 398.4 433.1 395.3 432 C 394.40000000000003 431.7 393.6 431.5 392.8 431.4 L 392.7 431.4 C 390.3 431.09999999999997 388 431.2 385.8 431.79999999999995 C 383.1 432.49999999999994 380.6 433.79999999999995 378.1 435.29999999999995 C 376.5 436.4 374.90000000000003 437.59999999999997 373.40000000000003 438.69999999999993 C 372.1 439.69999999999993 370.90000000000003 440.69999999999993 369.70000000000005 441.79999999999995 C 370.1 442.59999999999997 370.40000000000003 443.49999999999994 370.6 444.4 C 372.6 443.59999999999997 374.70000000000005 443.09999999999997 376.8 442.79999999999995 C 379.2 442.4 381.7 442.29999999999995 384.2 442.29999999999995 C 385 442.29999999999995 385.7 442.29999999999995 386.4 442.4 C 385.79999999999995 442.5 385.29999999999995 442.7 384.7 442.9 C 382.7 443.5 380.7 444.2 378.7 445.09999999999997 C 375.7 446.4 373 448.09999999999997 370.8 450.29999999999995 L 370.8 455.09999999999997 C 374.90000000000003 459.2 380.8 461.59999999999997 386.40000000000003 462.99999999999994 C 381.1 463.19999999999993 375.6 462.79999999999995 370.6 460.8999999999999 C 370.40000000000003 461.8999999999999 370.1 462.7999999999999 369.70000000000005 463.5999999999999 C 379.20000000000005 472.19999999999993 395.1 480.69999999999993 403.30000000000007 466.69999999999993 C 403.80000000000007 469.19999999999993 402.9000000000001 471.69999999999993 401.30000000000007 473.79999999999995 C 401.9000000000001 473.69999999999993 402.6000000000001 473.49999999999994 403.20000000000005 473.19999999999993 C 404.80000000000007 472.19999999999993 406.00000000000006 470.49999999999994 407.1 467.8999999999999 C 407.40000000000003 467.0999999999999 407.6 465.8999999999999 407.90000000000003 464.3999999999999 C 408.1 462.69999999999993 408.20000000000005 460.69999999999993 408.40000000000003 458.49999999999994 C 408.50000000000006 457.49999999999994 408.50000000000006 456.3999999999999 408.50000000000006 455.29999999999995 C 408.6000000000001 453.99999999999994 408.6000000000001 452.59999999999997 408.6000000000001 451.19999999999993 C 408.50000000000006 448.0999999999999 408.4000000000001 444.99999999999994 408.1000000000001 442.49999999999994 C 407.9000000000001 440.29999999999995 407.6000000000001 438.69999999999993 407.2000000000001 437.69999999999993 C 406.1000000000001 434.99999999999994 404.9000000000001 433.29999999999995 403.3000000000001 432.29999999999995 C 402.7000000000001 431.99999999999994 402.10000000000014 431.79999999999995 401.40000000000015 431.69999999999993 C 402.60000000000014 433.19999999999993 403.3000000000001 434.8999999999999 403.40000000000015 436.69999999999993 C 403.4 437.2 403.3 437.9 403.2 438.6 z M 373.2 500.1 C 388.09999999999997 497.40000000000003 403.3 496.70000000000005 418.4 497.90000000000003 C 419.29999999999995 498.00000000000006 420.29999999999995 498.1 421.29999999999995 498.20000000000005 C 422.49999999999994 488.1 423.4 478.1 424.09999999999997 467.90000000000003 C 420.4 467.6 416.79999999999995 466.90000000000003 413.2 465.90000000000003 C 413 467.50000000000006 412.7 468.8 412.3 469.70000000000005 C 410.8 473.50000000000006 408.8 476.20000000000005 406.1 477.80000000000007 C 404.5 478.80000000000007 402.40000000000003 479.4000000000001 400.3 479.4000000000001 C 398.5 479.4000000000001 396.7 478.9000000000001 395.2 477.9000000000001 C 384.4 482.1000000000001 372.8 475.2000000000001 365.2 467.4000000000001 C 364.09999999999997 467.9000000000001 362.8 468.2000000000001 361.5 468.2000000000001 L 358.5 468.2000000000001 C 357.2 468.2000000000001 355.9 467.9000000000001 354.8 467.4000000000001 C 347.2 475.30000000000007 335.7 482.1000000000001 324.8 477.9000000000001 C 323.3 478.9000000000001 321.5 479.4000000000001 319.7 479.4000000000001 C 317.59999999999997 479.4000000000001 315.5 478.80000000000007 313.9 477.80000000000007 C 311.2 476.20000000000005 309.2 473.6000000000001 307.7 469.70000000000005 C 307.3 468.80000000000007 307 467.50000000000006 306.8 465.90000000000003 C 304.6 466.50000000000006 302.3 467.00000000000006 300.1 467.40000000000003 C 301.8 483.70000000000005 303.8 500.3 306.1 516.6 C 316.5 513.4 327.6 513 337.70000000000005 509.40000000000003 C 352.40000000000003 505.40000000000003 365.00000000000006 489.90000000000003 353.20000000000005 476.70000000000005 L 357.00000000000006 475.40000000000003 C 360.90000000000003 474.1 364.90000000000003 475.6 367.6000000000001 477.70000000000005 C 374.6 482.8 374.8 492.4 373.2 500.1 z M 316.7 436.5 C 316.9 434.7 317.59999999999997 433 318.8 431.5 C 318.2 431.6 317.5 431.8 316.90000000000003 432.1 C 315.3 433.1 314.1 434.8 313.00000000000006 437.40000000000003 C 312.70000000000005 438.40000000000003 312.30000000000007 440.1 312.1000000000001 442.3 C 311.80000000000007 444.7 311.7000000000001 447.7 311.6000000000001 450.8 C 311.6000000000001 452.2 311.6000000000001 453.6 311.7000000000001 455 C 311.7000000000001 456.1 311.7000000000001 457.2 311.8000000000001 458.3 C 311.90000000000015 460.6 312.10000000000014 462.7 312.3000000000001 464.3 C 312.5000000000001 465.8 312.7000000000001 466.90000000000003 313.0000000000001 467.6 C 314.10000000000014 470.3 315.3000000000001 472 316.9000000000001 473 C 317.5000000000001 473.3 318.1000000000001 473.5 318.80000000000007 473.6 C 317.20000000000005 471.5 316.30000000000007 469 316.80000000000007 466.5 C 318.4000000000001 470.2 321.6000000000001 472 324.70000000000005 473.1 C 334.50000000000006 476.20000000000005 343.1 469.6 350.40000000000003 463.3 C 349.90000000000003 462.5 349.6 461.6 349.50000000000006 460.7 C 344.50000000000006 462.59999999999997 339.00000000000006 463 333.70000000000005 462.8 C 339.30000000000007 461.40000000000003 345.20000000000005 459 349.30000000000007 454.90000000000003 L 349.30000000000007 450.1 C 347.1000000000001 447.90000000000003 344.4000000000001 446.20000000000005 341.4000000000001 444.90000000000003 C 339.4000000000001 444.00000000000006 337.4000000000001 443.3 335.4000000000001 442.70000000000005 C 334.80000000000007 442.50000000000006 334.30000000000007 442.40000000000003 333.7000000000001 442.20000000000005 C 334.5000000000001 442.1 335.2000000000001 442.1 335.9000000000001 442.1 C 338.30000000000007 442.1 340.80000000000007 442.20000000000005 343.30000000000007 442.6 C 345.4000000000001 442.90000000000003 347.50000000000006 443.5 349.50000000000006 444.20000000000005 C 349.70000000000005 443.20000000000005 350.00000000000006 442.30000000000007 350.40000000000003 441.50000000000006 C 349.20000000000005 440.50000000000006 348.00000000000006 439.40000000000003 346.70000000000005 438.40000000000003 C 345.20000000000005 437.20000000000005 343.6 436.1 341.90000000000003 435.1 C 339.40000000000003 433.6 336.70000000000005 432.40000000000003 334.00000000000006 431.6 C 331.70000000000005 431 329.40000000000003 430.70000000000005 327.30000000000007 431 L 327.20000000000005 431 C 323.20000000000005 431.5 319.6 433.6 316.80000000000007 438.3 C 316.7 437.9 316.6 437.2 316.7 436.5 z M 360 414 C 357.5 421 354.2 427.6 350.3 433.5 C 351.90000000000003 434.8 353.40000000000003 436.2 354.8 437.6 C 355.90000000000003 437.1 357.2 436.8 358.5 436.8 L 361.5 436.8 C 362.8 436.8 364.1 437.1 365.2 437.6 C 366.59999999999997 436.1 368.09999999999997 434.8 369.7 433.5 C 365.8 427.5 362.5 421 360 414 z M 374.4 430.1 C 377.09999999999997 428.5 379.9 427.3 382.79999999999995 426.6 C 377.99999999999994 417.8 373.4 408.70000000000005 364.19999999999993 404.8 C 363.8999999999999 404.90000000000003 363.49999999999994 405.1 363.19999999999993 405.3 C 365.8 414.3 369.6 422.7 374.4 430.1 z M 361.5 442.6 L 358.5 442.6 C 356.6 442.6 355.1 444.1 355.1 446 L 355.1 459 C 355.1 460.9 356.6 462.4 358.5 462.4 L 361.5 462.4 C 363.4 462.4 364.9 460.9 364.9 459 L 364.9 446 C 364.9 444.1 363.4 442.6 361.5 442.6 z M 356.7 405.2 C 356.4 405.09999999999997 356.09999999999997 404.9 355.8 404.8 C 346.7 409.1 341.6 417.6 336.8 426.5 C 339.8 427.1 342.7 428.5 345.5 430.1 C 350.4 422.7 354.2 414.3 356.7 405.2 z M 348.7 402.4 C 347 401.9 345.09999999999997 401.5 343.09999999999997 401.09999999999997 C 334.09999999999997 406.99999999999994 328.7 416.7 323.2 426.2 C 323.8 426.4 324.4 426.7 324.9 427.09999999999997 C 326.59999999999997 426.4 328.4 426.09999999999997 330.09999999999997 425.9 C 335 416.5 339.9 407.2 348.7 402.4 z M 396.9 426.2 C 391.4 416.7 386 406.9 377 401.09999999999997 C 375 401.4 373.2 401.9 371.5 402.29999999999995 C 380 407.19999999999993 385.1 416.99999999999994 389.8 425.9 C 391.6 426 393.3 426.4 395.2 427.09999999999997 C 395.6 426.7 396.2 426.4 396.9 426.2 z M 386.1 390.3 C 391.3 388.3 395 383.6 395.90000000000003 378.2 C 396.00000000000006 377.3 396.1 376.4 396.1 375.5 C 396.1 374.9 396 374.3 396 373.8 C 395.5 369.6 393.4 365.8 390.1 363.2 C 387.3 361 383.90000000000003 359.8 380.3 359.8 C 379.7 359.8 379.1 359.8 378.40000000000003 359.90000000000003 C 369.70000000000005 360.90000000000003 363.50000000000006 368.8 364.6 377.40000000000003 C 365.6 386.1 373.5 392.20000000000005 382.1 391.20000000000005 C 383.6 391.1 384.8 390.8 386.1 390.3 z M 274.3 446.4 C 276.6 446.29999999999995 279 445.79999999999995 281.3 445.09999999999997 C 284.8 443.9 288.2 441.99999999999994 291.40000000000003 439.49999999999994 C 293.20000000000005 437.99999999999994 295.00000000000006 436.29999999999995 296.6 434.29999999999995 C 299.70000000000005 430.79999999999995 302.3 426.59999999999997 304.6 421.9 C 309.5 411.59999999999997 314.3 404.7 318 400.4 C 316.6 400.7 315.3 401.2 314 401.7 C 308 404.2 302.5 409 297 416.5 C 296.3 417.4 295.6 418.4 295 419.4 C 293.3 421.79999999999995 291.7 424.4 290.2 426.9 C 290.09999999999997 427 290.09999999999997 427.09999999999997 290 427.09999999999997 C 288 430.4 285.9 433.59999999999997 283.7 436.7 C 281.59999999999997 439.7 278.7 443.3 274.9 446.09999999999997 C 274.7 446.2 274.5 446.3 274.3 446.4 z M 256.4 427.7 C 256.5 429.8 256.9 431.59999999999997 257.4 433.09999999999997 C 258.59999999999997 432.59999999999997 260.29999999999995 431.59999999999997 262.2 429.9 C 264.2 427.9 266.59999999999997 424.9 266.8 421.4 C 267 419.09999999999997 265.6 416 263.6 415.59999999999997 C 263.40000000000003 415.49999999999994 263.20000000000005 415.49999999999994 263 415.49999999999994 C 261.7 415.49999999999994 259.8 416.3999999999999 258.5 418.19999999999993 C 257 420.3 256.3 423.5 256.4 427.7 z M 282 461.8 C 284.3 462.1 286.5 462.3 288.9 462.40000000000003 C 290.5 462.40000000000003 292.09999999999997 462.3 293.7 462.20000000000005 C 295.59999999999997 462.1 297.5 461.90000000000003 299.5 461.6 C 301.8 461.3 304 460.70000000000005 306.2 460.1 C 306.09999999999997 459 306.09999999999997 457.90000000000003 306.09999999999997 456.70000000000005 C 303.7 457.1 301.4 457.20000000000005 299.09999999999997 456.90000000000003 C 298.9 456.90000000000003 298.59999999999997 456.8 298.29999999999995 456.8 C 298.49999999999994 456.7 298.79999999999995 456.7 298.99999999999994 456.7 C 301.49999999999994 456.2 303.8999999999999 455.4 305.99999999999994 454.4 C 305.8999999999999 452.2 305.8999999999999 450.09999999999997 306.09999999999997 448 C 303.7 449.8 301.2 451.4 298.59999999999997 452.7 C 297.7 453.2 296.7 453.59999999999997 295.7 454 C 294.8 454.3 293.9 454.6 293 454.9 C 291.2 455.4 289.3 455.79999999999995 287.5 455.9 C 284.9 456.09999999999997 282.4 456 279.8 455.4 C 284.40000000000003 455.2 288.7 453.79999999999995 292.7 451.7 C 294.59999999999997 450.7 296.4 449.5 298.2 448.2 C 298.7 447.9 299.09999999999997 447.59999999999997 299.59999999999997 447.2 C 302.29999999999995 445.3 304.7 443 306.7 440.59999999999997 C 307 438.4 307.4 436.59999999999997 307.9 435.4 C 309.4 431.59999999999997 311.4 428.9 314.09999999999997 427.29999999999995 C 314.7 426.99999999999994 315.4 426.59999999999997 316.09999999999997 426.4 C 321.59999999999997 416.59999999999997 326.59999999999997 406.5 335.59999999999997 400 C 334.99999999999994 399.9 334.4 399.8 333.9 399.8 C 331.7 399.5 329.7 399.40000000000003 327.59999999999997 399.40000000000003 C 325.4 401.1 317.79999999999995 408.00000000000006 309.99999999999994 424.50000000000006 C 306.69999999999993 431.50000000000006 302.3999999999999 437.50000000000006 297.59999999999997 442.1000000000001 C 295.9 443.7000000000001 294.09999999999997 445.1000000000001 292.2 446.30000000000007 C 289.4 448.20000000000005 286.4 449.70000000000005 283.3 450.80000000000007 C 280 451.9000000000001 276.6 452.50000000000006 273.2 452.50000000000006 C 268.5 452.50000000000006 264 451.50000000000006 259.9 449.30000000000007 C 259.79999999999995 449.30000000000007 259.79999999999995 449.30000000000007 259.79999999999995 449.30000000000007 C 255.89999999999995 448.1000000000001 252.39999999999995 445.30000000000007 249.99999999999994 441.4000000000001 C 249.59999999999994 440.7000000000001 249.19999999999993 440.1000000000001 248.89999999999995 439.30000000000007 C 249.39999999999995 440.6000000000001 249.89999999999995 441.70000000000005 250.59999999999994 442.9000000000001 C 255.79999999999993 451.7000000000001 265.3999999999999 458.30000000000007 276.8999999999999 461.1000000000001 C 278.5 461.3 280.3 461.6 282 461.8 z M 357.1 590.7 C 355.5 590.6 354 590.4000000000001 352.40000000000003 590.1 C 351.40000000000003 589.9 350.50000000000006 589.6 349.6 589.4 C 349.70000000000005 595 348.8 623.1999999999999 347.5 623.8 C 347.5 623.8 342.5 626.5 341.7 626.8 C 340.8 627.4 339.8 628.0999999999999 339 628.8 C 338.7 629 338.4 629.3 338.2 629.5 C 337.59999999999997 630 337 630.5 336.4 631.1 C 336.2 631.3000000000001 335.9 631.6 335.7 631.9 C 335.2 632.4 334.8 632.9 334.4 633.4 C 334.09999999999997 633.8 333.79999999999995 634.1999999999999 333.5 634.6 C 332.9 635.4 332.3 636.3000000000001 331.9 637.2 L 339.09999999999997 637.2 L 357.09999999999997 637.3000000000001 L 357.09999999999997 590.7 z M 378.2 626.7 C 377.4 626.5 372.4 623.7 372.4 623.7 C 371.09999999999997 623.1 370.2 596.6 370.29999999999995 590.4000000000001 C 369.4 590.5000000000001 368.4 590.7 367.49999999999994 590.7 C 365.8999999999999 590.9000000000001 364.3999999999999 590.9000000000001 362.79999999999995 590.9000000000001 L 362.79999999999995 637.1000000000001 L 387.99999999999994 637.0000000000001 C 385.8 632.8 382.3 629.4 378.2 626.7 z M 418.1 522.1 C 401.1 520.8000000000001 383.70000000000005 523.1 366.70000000000005 526.6 C 348.20000000000005 530.4 329.90000000000003 535.7 310.90000000000003 539.1 C 315.90000000000003 554.9 323.20000000000005 566.6 333.1 574.8000000000001 C 343.70000000000005 583.6 358.3 587.1 372.90000000000003 584.2 C 386.90000000000003 581.5 397.3 574.9000000000001 404.00000000000006 564.4000000000001 C 412 551.9 415.7 536.9 418.1 522.1 z M 421.3 516.5 C 421.40000000000003 514.9 420.8 513.1 419.7 512 C 419.8 511.9 419.7 511.9 419.59999999999997 511.9 C 409.4 510.7 399.09999999999997 510.29999999999995 388.7 510.9 C 399 509 409.5 507.7 420.2 507.5 C 422 507.4 423.8 507.4 425.7 507.5 C 425.4 506.6 424.8 505.7 424.2 505.3 C 423.5 504.7 422.2 504.3 420.7 504 C 419.8 503.8 418.9 503.8 418 503.7 C 400.4 502.2 382.5 503.7 365.3 507.5 C 366.90000000000003 501.2 369.40000000000003 493.5 367.6 487.8 C 367 485.2 365 482.6 362.6 481.40000000000003 C 367.8 496.3 353.6 511.40000000000003 339.5 514.9000000000001 C 329 518.5000000000001 317.2 519.1000000000001 306.8 522.4000000000001 C 304.90000000000003 523.0000000000001 303 523.7 301.2 524.6000000000001 C 298.2 526.0000000000001 295.4 527.7000000000002 292.9 530.1000000000001 L 292.29999999999995 525.0000000000001 C 289.9 507.7000000000001 286.29999999999995 488.4000000000001 294.59999999999997 471.9000000000001 C 294.59999999999997 471.80000000000007 294.59999999999997 471.80000000000007 294.59999999999997 471.80000000000007 C 294.49999999999994 470.50000000000006 294.29999999999995 469.20000000000005 294.2 468.00000000000006 C 292.7 468.1000000000001 291.2 468.20000000000005 289.7 468.20000000000005 C 288.09999999999997 468.20000000000005 286.4 468.1 284.8 468.00000000000006 C 279.3 478.50000000000006 279.90000000000003 493.40000000000003 280.3 504.90000000000003 C 280.90000000000003 514.2 281.90000000000003 524 285.40000000000003 531.9000000000001 C 286.6 534.8000000000001 290.8 535.6000000000001 295.20000000000005 535.4000000000001 C 297.90000000000003 535.1000000000001 300.70000000000005 534.8000000000001 303.40000000000003 534.4000000000001 C 305.3 534.1000000000001 307.20000000000005 533.8000000000001 309.20000000000005 533.5000000000001 C 328.00000000000006 530.3000000000001 346.50000000000006 524.8000000000001 365.50000000000006 521.0000000000001 C 382.90000000000003 517.4000000000001 400.90000000000003 514.9000000000001 419.00000000000006 516.4000000000001 C 419.8 516.4 420.5 516.4 421.3 516.5 z M 443.8 490.1 C 443.40000000000003 480.6 441.8 473.20000000000005 438.90000000000003 467.70000000000005 C 436.1 468.1 433.20000000000005 468.30000000000007 430.3 468.30000000000007 L 430 468.30000000000007 C 429.9 469.6000000000001 429.8 471.00000000000006 429.7 472.4000000000001 C 439.2 490.5000000000001 435 507.9000000000001 430.9 524.7 L 429.9 529.1 L 426.29999999999995 526.4 C 425.4 525.6999999999999 424.59999999999997 525.1999999999999 423.69999999999993 524.8 C 423.0999999999999 528.0999999999999 422.49999999999994 531.4 421.79999999999995 534.6999999999999 C 428.49999999999994 535.6999999999999 436.29999999999995 536.5999999999999 438.69999999999993 532.1999999999999 C 441.49999999999994 526.5999999999999 442.49999999999994 519.9999999999999 443.29999999999995 512.5999999999999 C 443.9 505.1 444.2 497.6 443.8 490.1 z M 471.6 438.4 C 471.1 439.4 470.70000000000005 440.29999999999995 470.1 441.2 C 467.70000000000005 445.09999999999997 464.20000000000005 447.9 460.3 449.09999999999997 C 460.3 449.09999999999997 460.3 449.09999999999997 460.2 449.09999999999997 C 456.09999999999997 451.29999999999995 451.5 452.29999999999995 446.9 452.29999999999995 C 443.5 452.29999999999995 440.09999999999997 451.69999999999993 436.79999999999995 450.59999999999997 C 434.79999999999995 449.9 432.9 449.09999999999997 430.99999999999994 447.99999999999994 C 428.99999999999994 446.99999999999994 427.19999999999993 445.69999999999993 425.3999999999999 444.19999999999993 C 419.2999999999999 439.3999999999999 414.0999999999999 432.5999999999999 410.0999999999999 424.29999999999995 C 402.3999999999999 407.79999999999995 394.69999999999993 400.9 392.4999999999999 399.19999999999993 C 390.4999999999999 399.19999999999993 388.39999999999986 399.29999999999995 386.1999999999999 399.5999999999999 C 385.59999999999985 399.69999999999993 384.9999999999999 399.7999999999999 384.4999999999999 399.7999999999999 C 393.4999999999999 406.2999999999999 398.5999999999999 416.6999999999999 403.9999999999999 426.1999999999999 C 404.6999999999999 426.39999999999986 405.39999999999986 426.7999999999999 405.9999999999999 427.09999999999985 C 408.6999999999999 428.6999999999999 410.6999999999999 431.29999999999984 412.1999999999999 435.1999999999999 C 412.6999999999999 436.39999999999986 413.09999999999985 438.09999999999985 413.2999999999999 440.2999999999999 C 416.6999999999999 444.2999999999999 420.5999999999999 447.6999999999999 424.9999999999999 450.3999999999999 C 426.7999999999999 451.3999999999999 428.6999999999999 452.3999999999999 430.6999999999999 453.0999999999999 C 431.9999999999999 453.5999999999999 433.2999999999999 453.9999999999999 434.59999999999985 454.2999999999999 C 436.29999999999984 454.6999999999999 438.1999999999999 455.0999999999999 440.09999999999985 455.1999999999999 C 438.89999999999986 455.4999999999999 437.6999999999999 455.6999999999999 436.49999999999983 455.6999999999999 C 434.49999999999983 455.7999999999999 432.49999999999983 455.6999999999999 430.59999999999985 455.39999999999986 C 429.6999999999999 455.29999999999984 428.89999999999986 455.09999999999985 427.89999999999986 454.89999999999986 C 427.79999999999984 454.89999999999986 427.79999999999984 454.89999999999986 427.79999999999984 454.79999999999984 C 426.79999999999984 454.59999999999985 425.79999999999984 454.29999999999984 424.79999999999984 453.89999999999986 C 420.89999999999986 452.4999999999999 417.1999999999998 450.39999999999986 413.79999999999984 447.79999999999984 C 413.89999999999986 449.89999999999986 413.89999999999986 451.99999999999983 413.89999999999986 454.1999999999998 C 416.29999999999984 455.29999999999984 418.79999999999984 456.0999999999998 421.59999999999985 456.5999999999998 C 418.89999999999986 457.0999999999998 416.39999999999986 456.9999999999998 413.79999999999984 456.5999999999998 C 413.79999999999984 457.7999999999998 413.6999999999998 458.8999999999998 413.6999999999998 459.8999999999998 C 417.1999999999998 460.8999999999998 420.79999999999984 461.49999999999983 424.3999999999998 461.8999999999998 C 426.2999999999998 462.1999999999998 428.1999999999998 462.2999999999998 430.1999999999998 462.1999999999998 C 431.79999999999984 462.1999999999998 433.3999999999998 462.0999999999998 434.99999999999983 461.99999999999983 C 437.1999999999998 461.8999999999998 439.3999999999998 461.49999999999983 441.59999999999985 461.09999999999985 C 442.09999999999985 460.99999999999983 442.59999999999985 460.89999999999986 443.09999999999985 460.79999999999984 C 454.59999999999985 457.99999999999983 464.1999999999999 451.39999999999986 469.39999999999986 442.59999999999985 C 470.3 441.3 471.1 439.8 471.6 438.4 z M 344.3 386.5 C 348 386.5 351 383.5 351 379.8 L 351 373 C 351 369.3 348 366.3 344.3 366.3 C 340.6 366.3 337.6 369.3 337.6 373 L 337.6 379.9 C 337.6 383.6 340.6 386.5 344.3 386.5 z" stroke-linecap="round" />
</g>
</g>
</g>
<g transform="matrix(1.9211538461538462 0 0 1.9211538461538462 720.549752419216 487.4378568574796)" id="text-logo"  >
<g style=""  paint-order="stroke"   >
		<g transform="matrix(1 0 0 1 0 0)" id="text-logo-path-0"  >
<path style="stroke: rgb(255,255,255); stroke-width: 0; stroke-dasharray: none; stroke-linecap: butt; stroke-dashoffset: 0; stroke-linejoin: miter; stroke-miterlimit: 4; fill: rgb(65,148,0); fill-rule: nonzero; opacity: 1;"  paint-order="stroke"  transform=" translate(-102.10934461652316, 14)" d="M 3.48 -9.64 L 3.48 -9.64 C 4.08 -9.84 4.68 -9.84 5.2 -9.56 C 5.72 -9.28 6.08 -8.84 6.28 -8.24 L 6.28 -8.24 C 6.64 -7.12 7.32 -6.2 8.28 -5.52 C 9.2 -4.8 10.28 -4.44 11.52 -4.44 L 11.52 -4.44 C 12.28 -4.44 13 -4.6 13.68 -4.88 C 14.36 -5.16 14.92 -5.56 15.44 -6.08 C 15.92 -6.56 16.32 -7.12 16.6 -7.8 C 16.88 -8.48 17.04 -9.16 17.04 -9.92 L 17.04 -9.92 L 17.04 -25.8 C 17.04 -26.4 17.28 -26.92 17.72 -27.36 C 18.16 -27.8 18.68 -28 19.28 -28 L 19.28 -28 C 19.88 -28 20.4 -27.8 20.84 -27.36 C 21.28 -26.92 21.48 -26.4 21.48 -25.8 L 21.48 -25.8 L 21.48 -9.92 C 21.48 -8.56 21.24 -7.28 20.72 -6.08 C 20.2 -4.84 19.48 -3.8 18.56 -2.92 C 17.64 -2 16.6 -1.32 15.4 -0.8 C 14.16 -0.28 12.88 0 11.52 0 L 11.52 0 C 10.44 0 9.4 -0.16 8.4 -0.52 C 7.4 -0.88 6.48 -1.36 5.64 -1.96 C 4.8 -2.56 4.08 -3.28 3.48 -4.12 C 2.88 -4.96 2.4 -5.88 2.08 -6.88 L 2.08 -6.88 C 1.88 -7.48 1.92 -8.08 2.2 -8.6 C 2.48 -9.12 2.92 -9.48 3.48 -9.64 Z M 35.76 -0.04 L 35.72 0 C 35.12 0 34.6 -0.2 34.16 -0.64 C 33.72 -1.08 33.52 -1.6 33.52 -2.2 L 33.52 -2.2 L 33.52 -25.8 C 33.52 -26.4 33.72 -26.92 34.16 -27.36 C 34.6 -27.8 35.12 -28 35.72 -28 L 35.72 -28 L 35.76 -28 L 35.84 -28 L 48.8 -28 C 49.4 -28 49.92 -27.8 50.36 -27.36 C 50.8 -26.92 51 -26.4 51 -25.8 L 51 -25.8 C 51 -25.2 50.8 -24.68 50.36 -24.24 C 49.92 -23.8 49.4 -23.56 48.8 -23.56 L 48.8 -23.56 L 37.96 -23.56 L 37.96 -16.24 L 47.28 -16.24 C 47.88 -16.24 48.4 -16 48.84 -15.6 C 49.28 -15.16 49.48 -14.64 49.48 -14.04 L 49.48 -14.04 C 49.48 -13.44 49.28 -12.92 48.84 -12.48 C 48.4 -12.04 47.88 -11.8 47.28 -11.8 L 47.28 -11.8 L 37.96 -11.8 L 37.96 -4.44 L 48.8 -4.44 C 49.4 -4.44 49.92 -4.24 50.36 -3.8 C 50.8 -3.36 51 -2.8 51 -2.2 L 51 -2.2 C 51 -1.6 50.8 -1.08 50.36 -0.64 C 49.92 -0.2 49.4 0 48.8 0 L 48.8 0 L 35.84 0 C 35.8 0 35.8 0 35.76 -0.04 L 35.76 -0.04 C 35.76 -0.04 35.76 -0.04 35.76 -0.04 L 35.76 -0.04 Z M 65.04 0 L 65.04 0 C 64.44 0 63.92 -0.2 63.48 -0.64 C 63.04 -1.08 62.84 -1.6 62.84 -2.2 L 62.84 -2.2 L 62.84 -25.8 C 62.84 -26.4 63.04 -26.92 63.48 -27.36 C 63.92 -27.8 64.44 -28 65.04 -28 L 65.04 -28 L 65.08 -28 L 65.16 -28 L 78.12 -28 C 78.72 -28 79.24 -27.8 79.68 -27.36 C 80.12 -26.92 80.32 -26.4 80.32 -25.8 L 80.32 -25.8 C 80.32 -25.2 80.12 -24.68 79.68 -24.24 C 79.24 -23.8 78.72 -23.56 78.12 -23.56 L 78.12 -23.56 L 67.28 -23.56 L 67.28 -16.24 L 76.6 -16.24 C 77.2 -16.24 77.72 -16 78.16 -15.6 C 78.6 -15.16 78.8 -14.64 78.8 -14.04 L 78.8 -14.04 C 78.8 -13.44 78.6 -12.92 78.16 -12.48 C 77.72 -12.04 77.2 -11.8 76.6 -11.8 L 76.6 -11.8 L 67.28 -11.8 L 67.28 -2.2 C 67.28 -1.6 67.04 -1.08 66.64 -0.64 C 66.2 -0.2 65.64 0 65.04 0 Z M 94.84 0 L 94.84 0 C 94.24 0 93.72 -0.2 93.28 -0.64 C 92.84 -1.08 92.64 -1.6 92.64 -2.2 L 92.64 -2.2 L 92.64 -25.8 C 92.64 -26.4 92.84 -26.92 93.28 -27.36 C 93.72 -27.8 94.24 -28 94.84 -28 L 94.84 -28 L 94.88 -28 L 94.96 -28 L 107.92 -28 C 108.52 -28 109.04 -27.8 109.48 -27.36 C 109.92 -26.92 110.12 -26.4 110.12 -25.8 L 110.12 -25.8 C 110.12 -25.2 109.92 -24.68 109.48 -24.24 C 109.04 -23.8 108.52 -23.56 107.92 -23.56 L 107.92 -23.56 L 97.08 -23.56 L 97.08 -16.24 L 106.4 -16.24 C 107 -16.24 107.52 -16 107.96 -15.6 C 108.4 -15.16 108.6 -14.64 108.6 -14.04 L 108.6 -14.04 C 108.6 -13.44 108.4 -12.92 107.96 -12.48 C 107.52 -12.04 107 -11.8 106.4 -11.8 L 106.4 -11.8 L 97.08 -11.8 L 97.08 -2.2 C 97.08 -1.6 96.84 -1.08 96.44 -0.64 C 96 -0.2 95.44 0 94.84 0 Z M 139.56 -4.68 L 139.56 -4.68 C 140.24 -4.48 140.72 -4 140.96 -3.32 L 140.96 -3.32 C 141.16 -2.72 141.16 -2.16 140.88 -1.64 C 140.6 -1.12 140.16 -0.72 139.56 -0.52 L 139.56 -0.52 C 139.48 -0.48 139.36 -0.48 139.24 -0.44 C 139.08 -0.4 138.88 -0.4 138.68 -0.4 L 138.68 -0.4 L 138.64 -0.4 C 138.44 -0.4 138.2 -0.44 137.92 -0.48 C 137.64 -0.52 137.36 -0.64 137.08 -0.84 L 137.08 -0.84 C 136.8 -1 136.56 -1.2 136.36 -1.44 C 136.16 -1.68 135.96 -1.96 135.8 -2.24 L 135.8 -2.24 C 135.52 -2.84 135.28 -3.48 135.16 -4.24 C 135.04 -5 134.96 -5.92 134.96 -7.04 L 134.96 -7.04 C 134.92 -7.72 134.76 -8.32 134.48 -8.76 L 134.48 -8.76 C 134.36 -8.96 134.16 -9.16 133.96 -9.4 C 133.76 -9.6 133.52 -9.76 133.28 -9.92 L 133.28 -9.92 C 132.84 -10.2 132.44 -10.44 132 -10.6 C 131.56 -10.72 131.24 -10.84 131.04 -10.88 L 131.04 -10.88 L 126.32 -10.88 L 126.32 -2.2 C 126.32 -1.6 126.12 -1.08 125.68 -0.64 C 125.24 -0.2 124.68 0 124.08 0 L 124.08 0 C 123.48 0 122.96 -0.2 122.52 -0.64 C 122.08 -1.08 121.88 -1.6 121.88 -2.2 L 121.88 -2.2 L 121.88 -25.8 C 121.88 -26.4 122.08 -26.92 122.52 -27.36 C 122.96 -27.8 123.48 -28 124.08 -28 L 124.08 -28 L 124.12 -28 L 124.12 -28 L 131.24 -28 C 132.44 -28 133.56 -27.76 134.6 -27.32 C 135.64 -26.88 136.56 -26.24 137.32 -25.48 C 138.08 -24.72 138.68 -23.8 139.16 -22.76 C 139.6 -21.72 139.8 -20.6 139.8 -19.4 L 139.8 -19.4 C 139.8 -18.08 139.52 -16.84 138.96 -15.72 C 138.4 -14.6 137.64 -13.64 136.68 -12.84 L 136.68 -12.84 C 137.24 -12.4 137.72 -11.92 138.08 -11.36 L 138.08 -11.36 C 138.48 -10.76 138.8 -10.12 139.04 -9.4 C 139.28 -8.68 139.4 -7.88 139.4 -7.04 L 139.4 -7.04 C 139.36 -6.44 139.4 -5.92 139.44 -5.56 C 139.48 -5.2 139.52 -4.88 139.56 -4.68 Z M 126.32 -15.32 L 131.24 -15.32 C 131.8 -15.32 132.32 -15.44 132.84 -15.64 C 133.36 -15.84 133.8 -16.16 134.16 -16.52 C 134.52 -16.88 134.84 -17.32 135.04 -17.84 C 135.24 -18.32 135.36 -18.84 135.36 -19.4 L 135.36 -19.4 C 135.36 -20 135.24 -20.52 135.04 -21.04 C 134.84 -21.56 134.52 -22 134.16 -22.36 C 133.8 -22.72 133.36 -23.04 132.84 -23.24 C 132.32 -23.44 131.8 -23.56 131.24 -23.56 L 131.24 -23.56 L 126.32 -23.56 L 126.32 -15.32 Z M 155.28 -0.04 L 155.24 0 C 154.64 0 154.12 -0.2 153.68 -0.64 C 153.24 -1.08 153.04 -1.6 153.04 -2.2 L 153.04 -2.2 L 153.04 -25.8 C 153.04 -26.4 153.24 -26.92 153.68 -27.36 C 154.12 -27.8 154.64 -28 155.24 -28 L 155.24 -28 L 155.28 -28 L 155.36 -28 L 168.32 -28 C 168.92 -28 169.44 -27.8 169.88 -27.36 C 170.32 -26.92 170.52 -26.4 170.52 -25.8 L 170.52 -25.8 C 170.52 -25.2 170.32 -24.68 169.88 -24.24 C 169.44 -23.8 168.92 -23.56 168.32 -23.56 L 168.32 -23.56 L 157.48 -23.56 L 157.48 -16.24 L 166.8 -16.24 C 167.4 -16.24 167.92 -16 168.36 -15.6 C 168.8 -15.16 169 -14.64 169 -14.04 L 169 -14.04 C 169 -13.44 168.8 -12.92 168.36 -12.48 C 167.92 -12.04 167.4 -11.8 166.8 -11.8 L 166.8 -11.8 L 157.48 -11.8 L 157.48 -4.44 L 168.32 -4.44 C 168.92 -4.44 169.44 -4.24 169.88 -3.8 C 170.32 -3.36 170.52 -2.8 170.52 -2.2 L 170.52 -2.2 C 170.52 -1.6 170.32 -1.08 169.88 -0.64 C 169.44 -0.2 168.92 0 168.32 0 L 168.32 0 L 155.36 0 C 155.32 0 155.32 0 155.28 -0.04 L 155.28 -0.04 C 155.28 -0.04 155.28 -0.04 155.28 -0.04 L 155.28 -0.04 Z M 201.36 -27.28 L 201.36 -27.28 C 201.84 -26.92 202.12 -26.44 202.24 -25.84 C 202.32 -25.24 202.2 -24.72 201.84 -24.24 L 201.84 -24.24 L 193.64 -13 L 193.64 -2.2 C 193.64 -1.6 193.44 -1.08 193 -0.64 C 192.56 -0.2 192.04 0 191.44 0 L 191.44 0 C 190.84 0 190.36 -0.2 189.92 -0.64 C 189.48 -1.08 189.24 -1.6 189.24 -2.2 L 189.24 -2.2 L 189.24 -13 L 181.12 -24.24 C 180.76 -24.72 180.6 -25.24 180.68 -25.84 C 180.76 -26.44 181.04 -26.92 181.56 -27.28 L 181.56 -27.28 C 182.08 -27.64 182.6 -27.8 183.2 -27.72 C 183.8 -27.6 184.24 -27.32 184.6 -26.8 L 184.6 -26.8 L 191.44 -17.44 L 198.28 -26.8 C 198.64 -27.32 199.16 -27.6 199.76 -27.72 C 200.36 -27.8 200.88 -27.64 201.36 -27.28 Z" stroke-linecap="round" />
</g>
</g>
</g>
<g transform="matrix(1.9211538461538462 0 0 1.9211538461538462 806.9088961292042 603.5206473799494)" id="tagline-e28a9576-af44-4b07-8863-8df56bbaf6c2-logo"  >
<g style=""  paint-order="stroke"   >
		<g transform="matrix(1 0 0 1 0 0)" id="tagline-e28a9576-af44-4b07-8863-8df56bbaf6c2-logo-path-0"  >
<path style="stroke: rgb(255,255,255); stroke-width: 0; stroke-dasharray: none; stroke-linecap: butt; stroke-dashoffset: 0; stroke-linejoin: miter; stroke-miterlimit: 4; fill: rgb(65,148,0); fill-rule: nonzero; opacity: 1;"  paint-order="stroke"  transform=" translate(-146.85062792408488, 14)" d="M 23.48 -25.8 L 23.48 -25.8 C 23.48 -25.2 23.28 -24.68 22.84 -24.24 C 22.4 -23.8 21.88 -23.56 21.28 -23.56 L 21.28 -23.56 L 14.92 -23.56 L 14.92 -2.2 C 14.92 -1.6 14.72 -1.08 14.28 -0.64 C 13.84 -0.2 13.32 0 12.72 0 L 12.72 0 C 12.12 0 11.6 -0.2 11.16 -0.64 C 10.72 -1.08 10.52 -1.6 10.52 -2.2 L 10.52 -2.2 L 10.52 -23.56 L 4.2 -23.56 C 3.6 -23.56 3.08 -23.8 2.64 -24.24 C 2.2 -24.68 2 -25.2 2 -25.8 L 2 -25.8 C 2 -26.4 2.2 -26.92 2.64 -27.36 C 3.08 -27.8 3.6 -28 4.2 -28 L 4.2 -28 L 21.28 -28 C 21.88 -28 22.4 -27.8 22.84 -27.36 C 23.28 -26.92 23.48 -26.4 23.48 -25.8 Z M 37.88 0 L 37.88 0 C 37.28 0 36.76 -0.2 36.32 -0.64 C 35.88 -1.08 35.68 -1.6 35.68 -2.2 L 35.68 -2.2 L 35.68 -25.8 C 35.68 -26.4 35.88 -26.92 36.32 -27.36 C 36.76 -27.8 37.28 -28 37.88 -28 L 37.88 -28 C 38.48 -28 39.04 -27.8 39.48 -27.36 C 39.92 -26.92 40.12 -26.4 40.12 -25.8 L 40.12 -25.8 L 40.12 -16.2 L 50.48 -16.2 L 50.48 -25.8 C 50.48 -26.4 50.68 -26.92 51.12 -27.36 C 51.56 -27.8 52.08 -28 52.68 -28 L 52.68 -28 C 53.28 -28 53.84 -27.8 54.28 -27.36 C 54.72 -26.92 54.92 -26.4 54.92 -25.8 L 54.92 -25.8 L 54.92 -2.2 C 54.92 -1.6 54.72 -1.08 54.28 -0.64 C 53.84 -0.2 53.28 0 52.68 0 L 52.68 0 C 52.08 0 51.56 -0.2 51.12 -0.64 C 50.68 -1.08 50.48 -1.6 50.48 -2.2 L 50.48 -2.2 L 50.48 -11.8 L 40.12 -11.8 L 40.12 -2.2 C 40.12 -1.6 39.88 -1.08 39.48 -0.64 C 39.04 -0.2 38.48 0 37.88 0 Z M 71.88 -0.04 L 71.84 0 C 71.24 0 70.72 -0.2 70.28 -0.64 C 69.84 -1.08 69.64 -1.6 69.64 -2.2 L 69.64 -2.2 L 69.64 -25.8 C 69.64 -26.4 69.84 -26.92 70.28 -27.36 C 70.72 -27.8 71.24 -28 71.84 -28 L 71.84 -28 L 71.88 -28 L 71.96 -28 L 84.92 -28 C 85.52 -28 86.04 -27.8 86.48 -27.36 C 86.92 -26.92 87.12 -26.4 87.12 -25.8 L 87.12 -25.8 C 87.12 -25.2 86.92 -24.68 86.48 -24.24 C 86.04 -23.8 85.52 -23.56 84.92 -23.56 L 84.92 -23.56 L 74.08 -23.56 L 74.08 -16.24 L 83.4 -16.24 C 84 -16.24 84.52 -16 84.96 -15.6 C 85.4 -15.16 85.6 -14.64 85.6 -14.04 L 85.6 -14.04 C 85.6 -13.44 85.4 -12.92 84.96 -12.48 C 84.52 -12.04 84 -11.8 83.4 -11.8 L 83.4 -11.8 L 74.08 -11.8 L 74.08 -4.44 L 84.92 -4.44 C 85.52 -4.44 86.04 -4.24 86.48 -3.8 C 86.92 -3.36 87.12 -2.8 87.12 -2.2 L 87.12 -2.2 C 87.12 -1.6 86.92 -1.08 86.48 -0.64 C 86.04 -0.2 85.52 0 84.92 0 L 84.92 0 L 71.96 0 C 71.92 0 71.92 0 71.88 -0.04 L 71.88 -0.04 C 71.88 -0.04 71.88 -0.04 71.88 -0.04 L 71.88 -0.04 Z M 118.76 0 L 118.76 0 C 118.16 0 117.64 -0.2 117.2 -0.64 C 116.76 -1.08 116.56 -1.6 116.56 -2.2 L 116.56 -2.2 L 116.56 -25.8 C 116.56 -26.4 116.76 -26.92 117.2 -27.36 C 117.64 -27.8 118.16 -28 118.76 -28 L 118.76 -28 L 118.88 -28 L 118.92 -28 L 124.44 -28 C 125.48 -28 126.48 -27.8 127.4 -27.4 C 128.32 -27 129.16 -26.48 129.84 -25.8 C 130.52 -25.12 131.04 -24.28 131.44 -23.36 C 131.84 -22.44 132.04 -21.44 132.04 -20.4 L 132.04 -20.4 C 132.04 -19.56 131.92 -18.72 131.64 -17.96 C 131.36 -17.2 131 -16.48 130.52 -15.84 L 130.52 -15.84 C 131.72 -15.08 132.68 -14.04 133.44 -12.8 C 134.2 -11.52 134.56 -10.12 134.56 -8.6 L 134.56 -8.6 C 134.56 -7.4 134.32 -6.28 133.88 -5.24 C 133.44 -4.2 132.8 -3.28 132.04 -2.52 C 131.28 -1.76 130.36 -1.12 129.32 -0.68 C 128.28 -0.24 127.16 0 126 0 L 126 0 L 118.92 0 C 118.88 -0.04 118.88 -0.04 118.88 -0.04 L 118.88 -0.04 C 118.84 -0.04 118.8 -0.04 118.8 -0.04 C 118.8 0 118.8 0 118.76 0 Z M 124.44 -23.56 L 121 -23.56 L 121 -17.16 L 124.44 -17.16 C 125.32 -17.16 126.08 -17.48 126.68 -18.12 C 127.28 -18.76 127.6 -19.52 127.6 -20.4 L 127.6 -20.4 C 127.6 -21.28 127.28 -22.04 126.68 -22.64 C 126.08 -23.24 125.32 -23.56 124.44 -23.56 L 124.44 -23.56 Z M 126 -12.72 L 121 -12.72 L 121 -4.44 L 126 -4.44 C 127.16 -4.48 128.12 -4.88 128.92 -5.68 C 129.72 -6.44 130.12 -7.44 130.12 -8.6 L 130.12 -8.6 C 130.12 -9.76 129.72 -10.72 128.92 -11.52 C 128.12 -12.28 127.16 -12.68 126 -12.72 L 126 -12.72 Z M 169.08 -25.8 L 169.08 -11.56 C 169.08 -9.96 168.8 -8.48 168.2 -7.08 C 167.6 -5.68 166.76 -4.44 165.72 -3.4 C 164.64 -2.36 163.44 -1.52 162.04 -0.92 C 160.64 -0.32 159.12 0 157.52 0 L 157.52 0 C 155.92 0 154.4 -0.32 153 -0.92 C 151.6 -1.52 150.36 -2.36 149.32 -3.4 C 148.28 -4.44 147.48 -5.68 146.88 -7.08 C 146.28 -8.48 145.96 -9.96 145.96 -11.56 L 145.96 -11.56 L 145.96 -25.8 C 145.96 -26.4 146.16 -26.92 146.6 -27.36 C 147.04 -27.8 147.56 -28 148.16 -28 L 148.16 -28 C 148.76 -28 149.32 -27.8 149.76 -27.36 C 150.2 -26.92 150.4 -26.4 150.4 -25.8 L 150.4 -25.8 L 150.4 -11.56 C 150.4 -10.56 150.6 -9.64 150.96 -8.8 C 151.32 -7.92 151.84 -7.16 152.48 -6.52 C 153.12 -5.88 153.88 -5.36 154.76 -5 C 155.6 -4.64 156.52 -4.44 157.52 -4.44 L 157.52 -4.44 C 158.52 -4.44 159.44 -4.64 160.32 -5 C 161.16 -5.36 161.92 -5.88 162.56 -6.52 C 163.2 -7.16 163.72 -7.92 164.08 -8.8 C 164.44 -9.64 164.64 -10.56 164.64 -11.56 L 164.64 -11.56 L 164.64 -25.8 C 164.64 -26.4 164.88 -26.92 165.32 -27.36 C 165.76 -27.8 166.28 -28 166.88 -28 L 166.88 -28 C 167.48 -28 168 -27.8 168.44 -27.36 C 168.88 -26.92 169.08 -26.4 169.08 -25.8 L 169.08 -25.8 Z M 203.4 -25.8 L 203.4 -25.8 C 203.4 -25.2 203.2 -24.68 202.76 -24.24 C 202.32 -23.8 201.8 -23.56 201.2 -23.56 L 201.2 -23.56 L 194.84 -23.56 L 194.84 -2.2 C 194.84 -1.6 194.64 -1.08 194.2 -0.64 C 193.76 -0.2 193.24 0 192.64 0 L 192.64 0 C 192.04 0 191.52 -0.2 191.08 -0.64 C 190.64 -1.08 190.44 -1.6 190.44 -2.2 L 190.44 -2.2 L 190.44 -23.56 L 184.12 -23.56 C 183.52 -23.56 183 -23.8 182.56 -24.24 C 182.12 -24.68 181.92 -25.2 181.92 -25.8 L 181.92 -25.8 C 181.92 -26.4 182.12 -26.92 182.56 -27.36 C 183 -27.8 183.52 -28 184.12 -28 L 184.12 -28 L 201.2 -28 C 201.8 -28 202.32 -27.8 202.76 -27.36 C 203.2 -26.92 203.4 -26.4 203.4 -25.8 Z M 217.84 0 L 217.8 0 C 217.2 0 216.68 -0.2 216.24 -0.64 C 215.8 -1.08 215.6 -1.6 215.6 -2.2 L 215.6 -2.2 L 215.6 -25.8 C 215.6 -26.4 215.8 -26.92 216.24 -27.36 C 216.68 -27.8 217.2 -28 217.8 -28 L 217.8 -28 C 218.4 -28 218.96 -27.8 219.4 -27.36 C 219.84 -26.92 220.04 -26.4 220.04 -25.8 L 220.04 -25.8 L 220.04 -4.44 L 230.88 -4.44 C 231.48 -4.44 232 -4.24 232.44 -3.8 C 232.88 -3.36 233.08 -2.8 233.08 -2.2 L 233.08 -2.2 C 233.08 -1.6 232.88 -1.08 232.44 -0.64 C 232 -0.2 231.48 0 230.88 0 L 230.88 0 L 217.92 0 L 217.84 0 Z M 245.96 -0.04 L 245.92 0 C 245.32 0 244.8 -0.2 244.36 -0.64 C 243.92 -1.08 243.72 -1.6 243.72 -2.2 L 243.72 -2.2 L 243.72 -25.8 C 243.72 -26.4 243.92 -26.92 244.36 -27.36 C 244.8 -27.8 245.32 -28 245.92 -28 L 245.92 -28 L 245.96 -28 L 246.04 -28 L 259 -28 C 259.6 -28 260.12 -27.8 260.56 -27.36 C 261 -26.92 261.2 -26.4 261.2 -25.8 L 261.2 -25.8 C 261.2 -25.2 261 -24.68 260.56 -24.24 C 260.12 -23.8 259.6 -23.56 259 -23.56 L 259 -23.56 L 248.16 -23.56 L 248.16 -16.24 L 257.48 -16.24 C 258.08 -16.24 258.6 -16 259.04 -15.6 C 259.48 -15.16 259.68 -14.64 259.68 -14.04 L 259.68 -14.04 C 259.68 -13.44 259.48 -12.92 259.04 -12.48 C 258.6 -12.04 258.08 -11.8 257.48 -11.8 L 257.48 -11.8 L 248.16 -11.8 L 248.16 -4.44 L 259 -4.44 C 259.6 -4.44 260.12 -4.24 260.56 -3.8 C 261 -3.36 261.2 -2.8 261.2 -2.2 L 261.2 -2.2 C 261.2 -1.6 261 -1.08 260.56 -0.64 C 260.12 -0.2 259.6 0 259 0 L 259 0 L 246.04 0 C 246 0 246 0 245.96 -0.04 L 245.96 -0.04 C 245.96 -0.04 245.96 -0.04 245.96 -0.04 L 245.96 -0.04 Z M 290.16 -4.68 L 290.16 -4.68 C 290.84 -4.48 291.32 -4 291.56 -3.32 L 291.56 -3.32 C 291.76 -2.72 291.76 -2.16 291.48 -1.64 C 291.2 -1.12 290.76 -0.72 290.16 -0.52 L 290.16 -0.52 C 290.08 -0.48 289.96 -0.48 289.84 -0.44 C 289.68 -0.4 289.48 -0.4 289.28 -0.4 L 289.28 -0.4 L 289.24 -0.4 C 289.04 -0.4 288.8 -0.44 288.52 -0.48 C 288.24 -0.52 287.96 -0.64 287.68 -0.84 L 287.68 -0.84 C 287.4 -1 287.16 -1.2 286.96 -1.44 C 286.76 -1.68 286.56 -1.96 286.4 -2.24 L 286.4 -2.24 C 286.12 -2.84 285.88 -3.48 285.76 -4.24 C 285.64 -5 285.56 -5.92 285.56 -7.04 L 285.56 -7.04 C 285.52 -7.72 285.36 -8.32 285.08 -8.76 L 285.08 -8.76 C 284.96 -8.96 284.76 -9.16 284.56 -9.4 C 284.36 -9.6 284.12 -9.76 283.88 -9.92 L 283.88 -9.92 C 283.44 -10.2 283.04 -10.44 282.6 -10.6 C 282.16 -10.72 281.84 -10.84 281.64 -10.88 L 281.64 -10.88 L 276.92 -10.88 L 276.92 -2.2 C 276.92 -1.6 276.72 -1.08 276.28 -0.64 C 275.84 -0.2 275.28 0 274.68 0 L 274.68 0 C 274.08 0 273.56 -0.2 273.12 -0.64 C 272.68 -1.08 272.48 -1.6 272.48 -2.2 L 272.48 -2.2 L 272.48 -25.8 C 272.48 -26.4 272.68 -26.92 273.12 -27.36 C 273.56 -27.8 274.08 -28 274.68 -28 L 274.68 -28 L 274.72 -28 L 274.72 -28 L 281.84 -28 C 283.04 -28 284.16 -27.76 285.2 -27.32 C 286.24 -26.88 287.16 -26.24 287.92 -25.48 C 288.68 -24.72 289.28 -23.8 289.76 -22.76 C 290.2 -21.72 290.4 -20.6 290.4 -19.4 L 290.4 -19.4 C 290.4 -18.08 290.12 -16.84 289.56 -15.72 C 289 -14.6 288.24 -13.64 287.28 -12.84 L 287.28 -12.84 C 287.84 -12.4 288.32 -11.92 288.68 -11.36 L 288.68 -11.36 C 289.08 -10.76 289.4 -10.12 289.64 -9.4 C 289.88 -8.68 290 -7.88 290 -7.04 L 290 -7.04 C 289.96 -6.44 290 -5.92 290.04 -5.56 C 290.08 -5.2 290.12 -4.88 290.16 -4.68 Z M 276.92 -15.32 L 281.84 -15.32 C 282.4 -15.32 282.92 -15.44 283.44 -15.64 C 283.96 -15.84 284.4 -16.16 284.76 -16.52 C 285.12 -16.88 285.44 -17.32 285.64 -17.84 C 285.84 -18.32 285.96 -18.84 285.96 -19.4 L 285.96 -19.4 C 285.96 -20 285.84 -20.52 285.64 -21.04 C 285.44 -21.56 285.12 -22 284.76 -22.36 C 284.4 -22.72 283.96 -23.04 283.44 -23.24 C 282.92 -23.44 282.4 -23.56 281.84 -23.56 L 281.84 -23.56 L 276.92 -23.56 L 276.92 -15.32 Z" stroke-linecap="round" />
</g>
</g>
</g>
</svg>